<?xml version="1.0" encoding="UTF-8"?>
<svg id="Calque_2" data-name="Calque 2" xmlns="http://www.w3.org/2000/svg" viewBox="0 0 111.07 104.13">
  <defs>
    <style>
      .cls-1 {
        fill: #2d0d0f;
      }

      .cls-2 {
        fill: #bd1622;
      }
    </style>
  </defs>
  <g id="Calque_2-2" data-name="Calque 2">
    <g>
      <path class="cls-2" d="M55.54,0V88.08l-30.47,15.66c-2.68,1.37-5.72-1.04-5.18-4.12l5.76-32.82L1.2,43.5c-2.29-2.18-1.1-6.16,1.96-6.59l34-4.83L52.32,2.03c.35-.74,.95-1.34,1.69-1.69,.5-.23,1.02-.34,1.53-.34Z"/>
      <path class="cls-1" d="M107.92,36.9l-34-4.83L58.76,2.03c-.61-1.28-1.88-2.03-3.22-2.03-.51,0-1.03,.11-1.53,.34-.74,.35-1.34,.95-1.69,1.69l-15.16,30.05L3.16,36.91c-3.06,.43-4.25,4.41-1.96,6.59l24.45,23.3-5.76,32.82c-.54,3.08,2.5,5.49,5.18,4.12l30.47-15.66,30.47,15.66c2.68,1.37,5.72-1.04,5.18-4.11l-5.76-32.84,24.45-23.29c2.29-2.18,1.11-6.17-1.96-6.6Zm-28.89,25.68c-.93,.91-1.36,2.23-1.13,3.51l4.82,27.47-25.59-13.15c-.5-.25-1.04-.38-1.59-.38s-1.09,.12-1.6,.38l-25.59,13.15,4.82-27.47c.23-1.28-.19-2.6-1.13-3.5L11.87,43.36l28.12-4c1.19-.18,2.21-.93,2.73-2l12.81-25.39v.02s12.82,25.37,12.82,25.37c.53,1.07,1.55,1.82,2.73,2l28.13,3.99-20.18,19.23Z"/>
    </g>
  </g>
</svg>