<?xml version="1.0" encoding="UTF-8"?>
<svg id="Calque_2" data-name="Calque 2" xmlns="http://www.w3.org/2000/svg" viewBox="0 0 111.07 104.14">
  <defs>
    <style>
      .cls-1 {
        fill: #2d0d0f;
      }
    </style>
  </defs>
  <g id="Calque_2-2" data-name="Calque 2">
    <path class="cls-1" d="M19.89,99.62c-.54,3.08,2.5,5.49,5.18,4.12l30.47-15.66,30.47,15.66c2.68,1.37,5.72-1.03,5.18-4.11l-5.76-32.83,24.45-23.3c2.29-2.18,1.11-6.16-1.96-6.59l-34-4.83L58.75,2.04c-.84-1.78-2.97-2.53-4.74-1.69-.74,.35-1.34,.95-1.69,1.69l-15.16,30.04L3.16,36.91c-3.06,.43-4.25,4.42-1.96,6.59l24.46,23.3-5.76,32.83h0Zm34.05-19.22l-25.59,13.15,4.82-27.47c.23-1.28-.19-2.6-1.13-3.51L11.86,43.36l28.13-4c1.18-.18,2.2-.93,2.73-2l12.81-25.39,12.82,25.39c.53,1.07,1.55,1.82,2.73,2l28.13,3.99-20.17,19.23c-.94,.91-1.36,2.23-1.13,3.51l4.82,27.47-25.59-13.15c-1-.52-2.2-.52-3.2,0h0Z"/>
  </g>
</svg>