<?xml version="1.0" encoding="UTF-8"?>
<svg id="Calque_1" data-name="Calque 1" xmlns="http://www.w3.org/2000/svg" viewBox="0 0 89 89">
  <defs>
    <style>
      .cls-1 {
        fill: #2d0d0f;
      }

      .cls-2 {
        fill: none;
      }

      .cls-3 {
        fill: #f7f0d6;
      }

      .cls-4 {
        fill: #f0f;
      }
    </style>
  </defs>
  <path class="cls-4" d="M42.85,2h.35v-.14c-.13,.05-.25,.09-.35,.14Zm0,0h.35v-.14c-.13,.05-.25,.09-.35,.14Zm0,0h.35v-.14c-.13,.05-.25,.09-.35,.14Zm0,0h.35v-.14c-.13,.05-.25,.09-.35,.14Zm0,0h.35v-.14c-.13,.05-.25,.09-.35,.14Zm0,0h.35v-.14c-.13,.05-.25,.09-.35,.14Zm8.48,85c.04,.06,.08,.11,.13,.16,.01,.01,.02,.02,.03,.03v-.19h-.16Zm35.67-18.1c.06,.12,.12,.25,.19,.37h.01c-.07-.12-.13-.25-.2-.37ZM42.85,2h.35v-.14c-.13,.05-.25,.09-.35,.14Zm0,0h.35v-.14c-.13,.05-.25,.09-.35,.14Zm0,0h.35v-.14c-.13,.05-.25,.09-.35,.14Zm0,0h.35v-.14c-.13,.05-.25,.09-.35,.14Zm0,0h.35v-.14c-.13,.05-.25,.09-.35,.14Z"/>
  <path class="cls-1" d="M73.03,18.32c-.12-.01-.24-.02-.35-.03-.28,.67-.56,1.35-.9,2.18,.49,.42,.88,.77,1.45,1.25-.08-1.35-.14-2.37-.2-3.4Zm12.93,50.89c-.67,1.59-1.25,2.97-1.83,4.36,2.12-1.82,2.72-3.37,1.83-4.36ZM29.56,14.43c-1.38,1.21-1.15,3.05,.31,4.39-.11-1.64-.21-3.02-.31-4.39Zm43.47,3.89c-.12-.01-.24-.02-.35-.03-.28,.67-.56,1.35-.9,2.18,.49,.42,.88,.77,1.45,1.25-.08-1.35-.14-2.37-.2-3.4Zm0,0c-.12-.01-.24-.02-.35-.03-.28,.67-.56,1.35-.9,2.18,.49,.42,.88,.77,1.45,1.25-.08-1.35-.14-2.37-.2-3.4Zm0,0c-.12-.01-.24-.02-.35-.03-.28,.67-.56,1.35-.9,2.18,.49,.42,.88,.77,1.45,1.25-.08-1.35-.14-2.37-.2-3.4Zm0,0c-.12-.01-.24-.02-.35-.03-.28,.67-.56,1.35-.9,2.18,.49,.42,.88,.77,1.45,1.25-.08-1.35-.14-2.37-.2-3.4Zm0,0c-.12-.01-.24-.02-.35-.03-.28,.67-.56,1.35-.9,2.18,.49,.42,.88,.77,1.45,1.25-.08-1.35-.14-2.37-.2-3.4Zm13.97,50.58c.06,.12,.12,.25,.19,.37h.01c-.07-.12-.13-.25-.2-.37Zm-1.33-12.36l-.05,.05s.05-.03,.06-.04c.11-.09,.21-.18,.31-.27-.1,.08-.21,.17-.32,.26Zm-1.92,18.61c-.05,.14-.1,.3-.16,.45,.06-.15,.12-.31,.17-.45h-.01Zm-1.14,3.32c-.08,.44-.2,.85-.36,1.24,.17-.39,.29-.8,.37-1.24,.03-.14,.06-.27,.09-.41-.03,.14-.07,.27-.1,.41Zm-6.48-23.22h-.01c.06,.2,.12,.4,.18,.6-.06-.2-.12-.4-.17-.6Zm-.67-45.21h.01c.19-.93,.39-1.86,.59-2.78-.2,.92-.4,1.85-.6,2.78Zm-1.31,58.15h0c.21-.2,.42-.41,.63-.62-.21,.2-.42,.41-.63,.62Zm-1.12-49.87c-.12-.01-.24-.02-.35-.03-.28,.67-.56,1.35-.9,2.18,.49,.42,.88,.77,1.45,1.25-.08-1.35-.14-2.37-.2-3.4Zm-.03-1.88c-.06,.11-.14,.25-.21,.38,.08-.13,.16-.26,.22-.37h-.01Zm-.89,7.45c.04,.19,.09,.38,.14,.56h.01c-.05-.2-.1-.38-.15-.56Zm-1.39,45.52c.05,.14,.11,.27,.17,.4h.01c-.06-.13-.12-.26-.18-.4Zm-.33-36.32c-.07-.41-.19-.81-.33-1.19,.13,.38,.25,.78,.32,1.19,.12,.57,.23,1.14,.38,1.67-.14-.53-.25-1.1-.37-1.67Zm-1.75,3.12h.01s.07-.09,.1-.14c-.04,.05-.07,.1-.11,.14Zm-1.57-6.46c-.07-.14-.12-.28-.17-.42,.04,.14,.1,.28,.16,.42,.17,.39,.35,.79,.53,1.18-.18-.39-.35-.79-.52-1.18Zm-2.03,37.7c.3,.04,.59,.1,.85,.19-.26-.1-.55-.16-.85-.19Zm-2.33,.16h0s.01,.01,.01,.01c.13-.04,.26-.07,.39-.1-.13,.02-.27,.05-.4,.09Zm.03-7.54s0,.01,0,.01c.2,.09,.39,.19,.59,.28-.19-.09-.38-.19-.58-.29Zm-3.81-33.48c.15-.05,.3-.1,.46-.15h0c-.15,.05-.31,.1-.46,.15Zm-1.37-3.22s-.02,.08-.03,.12c.01-.04,.03-.08,.04-.13h-.01Zm.02-.05s-.01,.03-.01,.05c.01-.02,.01-.03,.02-.05h-.01Zm-23,1.37c.08,.55,.16,1.1,.24,1.65h.01l-.25-1.65Zm-3.82,5.64c.15-.06,.31-.12,.47-.17h0c-.16,.05-.32,.12-.47,.17Zm-2.8-12.81c-.02-.11-.04-.22-.05-.34,.01,.12,.03,.23,.04,.34,.01,.06,.02,.11,.03,.17,0-.06-.01-.12-.02-.17Zm-2.27,6.3h-.01s.06,.06,.08,.1c-.02-.04-.04-.07-.07-.1Zm-7.81,22.97s-.02,0-.04,.01h.08s-.02-.01-.04-.01Zm-5.62,3.27c.19,.04,.38,.07,.57,.1h0c-.19-.04-.38-.07-.57-.1Zm.21,.52c.1,.02,.19,.04,.29,.05h0c-.1-.02-.19-.03-.29-.05ZM9.12,15.76h0c.19-.05,.36-.1,.53-.13-.17,.02-.34,.07-.53,.13Zm-.12,49.93s.08,.06,.12,.09h0s-.08-.06-.12-.09Zm-.35,12.95s.01,.1,.01,.16c0,.05,.01,.09,.01,.14v-.14c-.01-.06-.01-.11-.02-.16Zm-.3-.81c.12,.21,.2,.42,.26,.64-.05-.22-.14-.43-.26-.64Zm-2.88-34.09h.53c-.19-.01-.36,0-.53,0Zm-.53-30.34c-.07-.1-.14-.2-.22-.29,.07,.09,.14,.19,.21,.29,.01,.02,.02,.02,.03,.03,0-.01-.01-.02-.02-.03Zm68.09,4.92c-.12-.01-.24-.02-.35-.03-.28,.67-.56,1.35-.9,2.18,.49,.42,.88,.77,1.45,1.25-.08-1.35-.14-2.37-.2-3.4Zm0,0c-.12-.01-.24-.02-.35-.03-.28,.67-.56,1.35-.9,2.18,.49,.42,.88,.77,1.45,1.25-.08-1.35-.14-2.37-.2-3.4Zm0,0c-.12-.01-.24-.02-.35-.03-.28,.67-.56,1.35-.9,2.18,.49,.42,.88,.77,1.45,1.25-.08-1.35-.14-2.37-.2-3.4Zm0,0c-.12-.01-.24-.02-.35-.03-.28,.67-.56,1.35-.9,2.18,.49,.42,.88,.77,1.45,1.25-.08-1.35-.14-2.37-.2-3.4Zm-43.47-3.89c-1.38,1.21-1.15,3.05,.31,4.39-.11-1.64-.21-3.02-.31-4.39Zm43.47,3.89c-.12-.01-.24-.02-.35-.03-.28,.67-.56,1.35-.9,2.18,.49,.42,.88,.77,1.45,1.25-.08-1.35-.14-2.37-.2-3.4Zm12.93,50.89c-.67,1.59-1.25,2.97-1.83,4.36,2.12-1.82,2.72-3.37,1.83-4.36Zm1.04-.31c.06,.12,.12,.25,.19,.37h.01c-.07-.12-.13-.25-.2-.37Zm-1.51-3.94c-.16-.81-.38-1.9-.6-3.01-2.69,.85-3.68,3.22-2.8,6.48,2.66-1.32,.92,1.99,2.67,2.27-.58-1.57-.53-2.95,1.24-3.7,.11,.2,.23,.43,.38,.7,.12,.23,.24,.47,.38,.74,.08,.15,.16,.3,.24,.46v-2.61c-.44-.39-.94-.82-1.51-1.33Zm-1.73,10.19h-.01c-.05,.14-.1,.3-.16,.45-.33,.87-.68,1.66-.88,2.46-.03,.14-.07,.27-.1,.41-.08,.44-.2,.85-.36,1.24-.16,.39-.35,.74-.57,1.07-.75,1.1-1.82,1.9-3.04,2.43-2.42,1.05-4.9,1.97-7.37,2.87-.84,.31-1.68,.61-2.52,.92h7.25c5.84,0,10.63-4.57,10.98-10.33-1.08-.51-2.05-.97-3.22-1.52Zm-10.73-56.83c-.12-.01-.24-.02-.35-.03-.28,.67-.56,1.35-.9,2.18,.49,.42,.88,.77,1.45,1.25-.08-1.35-.14-2.37-.2-3.4Zm0,0c-.12-.01-.24-.02-.35-.03-.28,.67-.56,1.35-.9,2.18,.49,.42,.88,.77,1.45,1.25-.08-1.35-.14-2.37-.2-3.4Zm0,0c-.12-.01-.24-.02-.35-.03-.28,.67-.56,1.35-.9,2.18,.49,.42,.88,.77,1.45,1.25-.08-1.35-.14-2.37-.2-3.4Zm0,0c-.12-.01-.24-.02-.35-.03-.28,.67-.56,1.35-.9,2.18,.49,.42,.88,.77,1.45,1.25-.08-1.35-.14-2.37-.2-3.4Zm0,0c-.12-.01-.24-.02-.35-.03-.28,.67-.56,1.35-.9,2.18,.49,.42,.88,.77,1.45,1.25-.08-1.35-.14-2.37-.2-3.4Zm0,0c-.12-.01-.24-.02-.35-.03-.28,.67-.56,1.35-.9,2.18,.49,.42,.88,.77,1.45,1.25-.08-1.35-.14-2.37-.2-3.4Zm0,0c-.12-.01-.24-.02-.35-.03-.28,.67-.56,1.35-.9,2.18,.49,.42,.88,.77,1.45,1.25-.08-1.35-.14-2.37-.2-3.4Zm0,0c-.12-.01-.24-.02-.35-.03-.28,.67-.56,1.35-.9,2.18,.49,.42,.88,.77,1.45,1.25-.08-1.35-.14-2.37-.2-3.4Zm0,0c-.12-.01-.24-.02-.35-.03-.28,.67-.56,1.35-.9,2.18,.49,.42,.88,.77,1.45,1.25-.08-1.35-.14-2.37-.2-3.4Zm0,0c-.12-.01-.24-.02-.35-.03-.28,.67-.56,1.35-.9,2.18,.49,.42,.88,.77,1.45,1.25-.08-1.35-.14-2.37-.2-3.4Zm0,0c-.12-.01-.24-.02-.35-.03-.28,.67-.56,1.35-.9,2.18,.49,.42,.88,.77,1.45,1.25-.08-1.35-.14-2.37-.2-3.4Zm0,0c-.12-.01-.24-.02-.35-.03-.28,.67-.56,1.35-.9,2.18,.49,.42,.88,.77,1.45,1.25-.08-1.35-.14-2.37-.2-3.4Zm0,0c-.12-.01-.24-.02-.35-.03-.28,.67-.56,1.35-.9,2.18,.49,.42,.88,.77,1.45,1.25-.08-1.35-.14-2.37-.2-3.4Zm0,0c-.12-.01-.24-.02-.35-.03-.28,.67-.56,1.35-.9,2.18,.49,.42,.88,.77,1.45,1.25-.08-1.35-.14-2.37-.2-3.4Zm0,0c-.12-.01-.24-.02-.35-.03-.28,.67-.56,1.35-.9,2.18,.49,.42,.88,.77,1.45,1.25-.08-1.35-.14-2.37-.2-3.4Zm0,0c-.12-.01-.24-.02-.35-.03-.28,.67-.56,1.35-.9,2.18,.49,.42,.88,.77,1.45,1.25-.08-1.35-.14-2.37-.2-3.4Zm0,0c-.12-.01-.24-.02-.35-.03-.28,.67-.56,1.35-.9,2.18,.49,.42,.88,.77,1.45,1.25-.08-1.35-.14-2.37-.2-3.4Zm0,0c-.12-.01-.24-.02-.35-.03-.28,.67-.56,1.35-.9,2.18,.49,.42,.88,.77,1.45,1.25-.08-1.35-.14-2.37-.2-3.4Zm0,0c-.12-.01-.24-.02-.35-.03-.28,.67-.56,1.35-.9,2.18,.49,.42,.88,.77,1.45,1.25-.08-1.35-.14-2.37-.2-3.4Zm0,0c-.12-.01-.24-.02-.35-.03-.28,.67-.56,1.35-.9,2.18,.49,.42,.88,.77,1.45,1.25-.08-1.35-.14-2.37-.2-3.4Zm0,0c-.12-.01-.24-.02-.35-.03-.28,.67-.56,1.35-.9,2.18,.49,.42,.88,.77,1.45,1.25-.08-1.35-.14-2.37-.2-3.4Zm0,0c-.12-.01-.24-.02-.35-.03-.28,.67-.56,1.35-.9,2.18,.49,.42,.88,.77,1.45,1.25-.08-1.35-.14-2.37-.2-3.4Zm0,0c-.12-.01-.24-.02-.35-.03-.28,.67-.56,1.35-.9,2.18,.49,.42,.88,.77,1.45,1.25-.08-1.35-.14-2.37-.2-3.4Zm0,0c-.12-.01-.24-.02-.35-.03-.28,.67-.56,1.35-.9,2.18,.49,.42,.88,.77,1.45,1.25-.08-1.35-.14-2.37-.2-3.4Zm0,0c-.12-.01-.24-.02-.35-.03-.28,.67-.56,1.35-.9,2.18,.49,.42,.88,.77,1.45,1.25-.08-1.35-.14-2.37-.2-3.4Zm0,0c-.12-.01-.24-.02-.35-.03-.28,.67-.56,1.35-.9,2.18,.49,.42,.88,.77,1.45,1.25-.08-1.35-.14-2.37-.2-3.4Zm0,0c-.12-.01-.24-.02-.35-.03-.28,.67-.56,1.35-.9,2.18,.49,.42,.88,.77,1.45,1.25-.08-1.35-.14-2.37-.2-3.4Zm0,0c-.12-.01-.24-.02-.35-.03-.28,.67-.56,1.35-.9,2.18,.49,.42,.88,.77,1.45,1.25-.08-1.35-.14-2.37-.2-3.4Zm0,0c-.12-.01-.24-.02-.35-.03-.28,.67-.56,1.35-.9,2.18,.49,.42,.88,.77,1.45,1.25-.08-1.35-.14-2.37-.2-3.4Zm0,0c-.12-.01-.24-.02-.35-.03-.28,.67-.56,1.35-.9,2.18,.49,.42,.88,.77,1.45,1.25-.08-1.35-.14-2.37-.2-3.4Zm0,0c-.12-.01-.24-.02-.35-.03-.28,.67-.56,1.35-.9,2.18,.49,.42,.88,.77,1.45,1.25-.08-1.35-.14-2.37-.2-3.4Zm0,0c-.12-.01-.24-.02-.35-.03-.28,.67-.56,1.35-.9,2.18,.49,.42,.88,.77,1.45,1.25-.08-1.35-.14-2.37-.2-3.4Zm0,0c-.12-.01-.24-.02-.35-.03-.28,.67-.56,1.35-.9,2.18,.49,.42,.88,.77,1.45,1.25-.08-1.35-.14-2.37-.2-3.4Zm0,0c-.12-.01-.24-.02-.35-.03-.28,.67-.56,1.35-.9,2.18,.49,.42,.88,.77,1.45,1.25-.08-1.35-.14-2.37-.2-3.4Zm0,0c-.12-.01-.24-.02-.35-.03-.28,.67-.56,1.35-.9,2.18,.49,.42,.88,.77,1.45,1.25-.08-1.35-.14-2.37-.2-3.4Zm0,0c-.12-.01-.24-.02-.35-.03-.28,.67-.56,1.35-.9,2.18,.49,.42,.88,.77,1.45,1.25-.08-1.35-.14-2.37-.2-3.4Zm0,0c-.12-.01-.24-.02-.35-.03-.28,.67-.56,1.35-.9,2.18,.49,.42,.88,.77,1.45,1.25-.08-1.35-.14-2.37-.2-3.4Zm0,0c-.12-.01-.24-.02-.35-.03-.28,.67-.56,1.35-.9,2.18,.49,.42,.88,.77,1.45,1.25-.08-1.35-.14-2.37-.2-3.4Zm0,0c-.12-.01-.24-.02-.35-.03-.28,.67-.56,1.35-.9,2.18,.49,.42,.88,.77,1.45,1.25-.08-1.35-.14-2.37-.2-3.4Zm0,0c-.12-.01-.24-.02-.35-.03-.28,.67-.56,1.35-.9,2.18,.49,.42,.88,.77,1.45,1.25-.08-1.35-.14-2.37-.2-3.4Zm0,0c-.12-.01-.24-.02-.35-.03-.28,.67-.56,1.35-.9,2.18,.49,.42,.88,.77,1.45,1.25-.08-1.35-.14-2.37-.2-3.4Zm0,0c-.12-.01-.24-.02-.35-.03-.28,.67-.56,1.35-.9,2.18,.49,.42,.88,.77,1.45,1.25-.08-1.35-.14-2.37-.2-3.4Zm0,0c-.12-.01-.24-.02-.35-.03-.28,.67-.56,1.35-.9,2.18,.49,.42,.88,.77,1.45,1.25-.08-1.35-.14-2.37-.2-3.4Zm0,0c-.12-.01-.24-.02-.35-.03-.28,.67-.56,1.35-.9,2.18,.49,.42,.88,.77,1.45,1.25-.08-1.35-.14-2.37-.2-3.4Zm0,0c-.12-.01-.24-.02-.35-.03-.28,.67-.56,1.35-.9,2.18,.49,.42,.88,.77,1.45,1.25-.08-1.35-.14-2.37-.2-3.4Zm0,0c-.12-.01-.24-.02-.35-.03-.28,.67-.56,1.35-.9,2.18,.49,.42,.88,.77,1.45,1.25-.08-1.35-.14-2.37-.2-3.4Zm0,0c-.12-.01-.24-.02-.35-.03-.28,.67-.56,1.35-.9,2.18,.49,.42,.88,.77,1.45,1.25-.08-1.35-.14-2.37-.2-3.4Zm-15.45,5s-.01,.03-.01,.05c.01-.02,.01-.03,.02-.05h-.01Zm15.45-5c-.12-.01-.24-.02-.35-.03-.28,.67-.56,1.35-.9,2.18,.49,.42,.88,.77,1.45,1.25-.08-1.35-.14-2.37-.2-3.4Zm0,0c-.12-.01-.24-.02-.35-.03-.28,.67-.56,1.35-.9,2.18,.49,.42,.88,.77,1.45,1.25-.08-1.35-.14-2.37-.2-3.4Zm0,0c-.12-.01-.24-.02-.35-.03-.28,.67-.56,1.35-.9,2.18,.49,.42,.88,.77,1.45,1.25-.08-1.35-.14-2.37-.2-3.4Zm0,0c-.12-.01-.24-.02-.35-.03-.28,.67-.56,1.35-.9,2.18,.49,.42,.88,.77,1.45,1.25-.08-1.35-.14-2.37-.2-3.4Zm0,0c-.12-.01-.24-.02-.35-.03-.28,.67-.56,1.35-.9,2.18,.49,.42,.88,.77,1.45,1.25-.08-1.35-.14-2.37-.2-3.4Zm0,0c-.12-.01-.24-.02-.35-.03-.28,.67-.56,1.35-.9,2.18,.49,.42,.88,.77,1.45,1.25-.08-1.35-.14-2.37-.2-3.4Zm0,0c-.12-.01-.24-.02-.35-.03-.28,.67-.56,1.35-.9,2.18,.49,.42,.88,.77,1.45,1.25-.08-1.35-.14-2.37-.2-3.4Zm0,0c-.12-.01-.24-.02-.35-.03-.28,.67-.56,1.35-.9,2.18,.49,.42,.88,.77,1.45,1.25-.08-1.35-.14-2.37-.2-3.4Zm13.8-5.4c.05-.06,.11-.12,.17-.17-.14-5.95-5.02-10.75-11-10.75h-7.07s.06,.1,.09,.16c.05,.08,.08,.16,.12,.25,.13,.31,.19,.68,.15,1.12-.02,.23-.03,.47-.05,.67-.86,.37-1.65,.71-2.51,1.09-1.11-.81-1.62-1.88-1.43-3.29h-12.83c.12,.38,.23,.76,.34,1.13l-.34,.18c-.27-.42-.54-.84-.83-1.31h-3.79s-.05,.06-.08,.1c-.07,.07-.12,.15-.18,.25-.04,.07-.23,.08-.35,.09-1.84,.19-2.48,.26-3.07,.66-.11,.07-.21,.16-.32,.25-.07,.06-.12,.1-.18,.16-.06,.05-.12,.11-.19,.18l-.2,.2h0c-.02-.22-.02-.41-.03-.6-.01-.17-.02-.33-.03-.49-.01-.25-.02-.48-.02-.8v-.14c-.13,.05-.25,.09-.35,.14-.81,.36-1.02,.8-.93,1.86,.12,1.42-.02,2.81,.67,4.09,.1,.18,.22,.36,.35,.54,.07,.1,.15,.2,.22,.3,.45,.59,.92,1.18,1.35,1.78,.25,.36,.5,.72,.71,1.09,.03,.05,.06,.11,.09,.16,.09,.15,.17,.3,.25,.46,.08,.16,.15,.31,.21,.47,1.52-.72,3.2-1.25,5.06-1.59-.06-.16-.12-.32-.17-.49-.06-.16-.11-.32-.16-.48-.27-.77-.53-1.56-.79-2.35-.19-.58-.39-1.17-.59-1.77,1.38,.47,2.99,2.14,3.94,3.76,.1,.16,.18,.32,.26,.48,.09,.16,.16,.32,.22,.48,.93-.08,1.9-.12,2.91-.12,3.93,0,7.27,.17,10.2,.52,.49,.06,.86,.48,.86,.98v2.39c.16-.75,.31-1.43,.47-2.19,0,.01,.02,.03,.03,.04,.17,.2,.34,.4,.5,.6,1.27,1.53,2.51,3.01,3.83,4.6,.06-.11,.13-.22,.19-.33,.08-.16,.18-.31,.26-.45h0c.08-.14,.16-.27,.22-.38,.37,.46,.74,.91,1.09,1.35,.19,.23,.36,.45,.54,.66,.17,.22,.35,.44,.53,.65,0,.01,.02,.01,.02,.01,.22-.24,.43-.48,.59-.65-.54-.44-1.02-.83-1.49-1.22,1.01-.74,1.74-1.27,2.41-1.76,.57,1.28,1.81,2.7,.79,4.65-.11,.22-.05,.52,.05,.87,.09,.29,.21,.6,.31,.92,.01,.08,.04,.15,.06,.23-.54,.16-1.07,.32-1.72,.51-.15-.93,.29-1.96-.02-2.73-.06-.13-.13-.26-.25-.38-.16-.17-.4-.32-.73-.44h-.01s0,0,0,0c0,.04,0,.07,0,.1v.05c.02,.21,0,.43-.04,.67-.14,.82-.6,1.81-1.13,2.51-.1,.12-.19,.22-.28,.33-.18,.19-.36,.34-.54,.45-.04,.02-.07,.05-.11,.09-.03,.02-.07,.06-.1,.1-.14,.15-.27,.36-.44,.61-.08,.13-.18,.27-.28,.42-.05-.19-.1-.37-.15-.55-.05-.18-.09-.37-.14-.55-.28-1.09-.53-2.13-.8-3.15-.13-.45-.26-.89-.4-1.33-.43-1.37-1.06-2.68-1.8-4.5-.19,.36-.34,.63-.46,.86-.07,.13-.13,.25-.19,.35-.06,.11-.11,.21-.17,.31-.03,.05-.05,.09-.08,.14-.02-.02-.04-.05-.06-.07-.17-.21-.36-.43-.5-.6v6.95c0,.54-.44,.98-.98,.98h-1.44l.07,.5,.05,.31h-.01c-.14,.06-.29,.12-.44,.19-.09,.03-.17,.07-.26,.11-.06-.04-.12-.08-.19-.11-.28-.17-.56-.34-.84-.5-.08-.05-.17-.1-.25-.15-.2-.12-.39-.23-.59-.35h-3.87c-.11,0-.22,0-.33,.01,.05,.17,.1,.34,.15,.5,.06,.17,.11,.33,.15,.49,.23,.72,.44,1.44,.66,2.15-.15,.06-.31,.11-.46,.16-.06,.02-.11,.04-.16,.05-.48-.26-.83-.58-1.07-.93-.12-.19-.2-.38-.25-.58-.06-.22-.09-.47-.08-.72,0-.06,0-.13,.01-.19,.01-.11,.03-.22,.05-.33,0-.04,.01-.08,.02-.12,.02-.09,.05-.18,.08-.28,.01-.04,.03-.08,.04-.13h-.01c-2.12,.3-3.81,1.41-5,3.24,0,.13,.01,.27,.02,.41,.01,.17,.01,.35,.01,.53,0,.41-.03,.85-.07,1.35-.03,.37-.06,.78-.08,1.24-.09-.07-.18-.14-.27-.21-.14-.11-.29-.22-.42-.33-.15-.11-.28-.22-.42-.34-.55,1.71-.84,3.78-.84,6.16v6.61c0,1.09,.89,1.98,1.98,1.98h6.32c0-.17-.02-.33-.06-.5-.02-.17-.07-.34-.13-.5-.27-.91-.8-1.79-1.27-2.7-.08-.14-.15-.28-.21-.44-.2-.44-.35-.92-.47-1.4-.18-.65-.29-1.31-.38-1.95-.08-.55,.37-1.22,.71-1.75,.81-1.29,1.7-2.53,2.56-3.78,.33-.48,.64-1.31,1.02-1.35,.47-.05,1.1,.49,1.5,.9,1.74,1.78,3.38,3.64,5.14,5.39,.32,.3,1.3,.47,1.44,.29h.01s.07-.09,.1-.14c.09-.14,.19-.32,.26-.5,.05-.12,.08-.24,.11-.36,.06-.25,.07-.49,0-.67-.43-1.23-.99-2.41-1.53-3.61-.18-.39-.35-.79-.52-1.18-.07-.14-.12-.28-.17-.42-.15-.44-.24-.9-.23-1.41,.62,.38,1.18,.81,1.66,1.3,.2,.2,.37,.4,.55,.6,.33,.42,.62,.87,.86,1.35,.12,.24,.23,.48,.32,.73,.13,.38,.25,.78,.32,1.19,.12,.57,.23,1.14,.38,1.67,.05,.19,.1,.36,.15,.53,.48,1.55,1.25,2.9,2.81,3.89,.45,.3,.72,1.1,.83,1.7,.63,3.7,2.79,5.95,6.3,7.13,.85,.28,1.72,.81,1.58,2.18-.1,1.08-.24,2.6,1.74,2.44,.2,0,.53,.59,.6,.94,.05,.29-.15,.87-.33,.89-.33,.07-.82,.01-1.07-.18-.03-.02-.04-.04-.07-.07-1.08-1.21-2.12-2.45-3.18-3.68s-2.12-2.46-3.23-3.65c-1.41-1.52-3-2.89-4.61-4.22-.36-.3-1.18-.32-1.66-.15-1.18,.41-2.06,.21-2.86-.71-.18-.21-.36-.46-.53-.74,.68,.08,1.12,.13,1.68,.2,.02-.42,.18-.85,.03-1.07-.87-1.18-1.73-2.4-2.76-3.44-.96-.97-2.06-1.86-3.24-2.54-.51-.3-1.82-.21-2,.13-.81,1.45-1.49,3.01-1.93,4.6-.03,.13-.07,.26-.08,.4-.19,1.01-.06,1.97,.21,2.9,.08,.26,.16,.51,.25,.76h0c.04,.13,.09,.26,.13,.39,.01,.04,.03,.08,.04,.11,.07,.17,.13,.34,.19,.5h6.38c.29,0,.55,.12,.74,.34,.19,.22,.28,.51,.24,.79l-1.84,11.86c-.08,.48-.48,.83-.97,.83h-11.83c-.1,0-.19,.01-.28,.02-.06,.18-.11,.36-.15,.55-.06,.21-.11,.42-.16,.63-.13,.61-.26,1.24-.39,1.85-.04,.17-.08,.34-.12,.51-.23,.9-.13,1.89-.18,2.84-.07-.05-.14-.1-.2-.16-.17-.13-.34-.26-.5-.39v23.32h.84c-.34-.43-.45-.96-.13-1.72,.03-.11,.08-.22,.14-.33,.06-.12,.11-.24,.15-.38,.02-.06,.04-.12,.05-.18,.05-.2,.07-.42,.1-.66,.04-.49,.07-1.05,.16-1.74,.24,.25,.49,.49,.72,.73,.47,.48,.94,.93,1.39,1.37,.99,.97,1.91,1.9,2.67,2.91h7.6c-.05-.41,.11-.8,.75-1.14,.91-.48,1.76-1.06,2.69-1.62,.02,.05,.14,.35,.53,1.32,.22-.72,.22-1.2,.44-1.36,2.12-1.5,2.97-3.86,3.55-6.1,.96-3.71,2.86-6.77,5.11-9.75,.51-.68,.59-1.69,.53-2.66,.43-.55,.86-1.1,1.3-1.66-.11-.11-.23-.21-.34-.31-.36,.35-.72,.7-1.07,1.05-.37,.36-.73,.71-1.11,1.08-.19,.18-.39,.36-.58,.55-.39,.38-.78,.76-1.2,1.17-.21,.2-.42,.41-.63,.62,.32-2.98,6.08-10.15,8.27-10.17-.1,.41-.19,.8-.27,1.2-.09,.41-.19,.84-.3,1.3,1.35-.81,2.71-1.38,3.04-3.09,.02-.16,.14-.32,.3-.47,.04-.04,.08-.08,.12-.11,.08-.08,.17-.15,.25-.21,.02-.02,.04-.03,.06-.05,.03-.01,.05-.03,.06-.04,.11-.09,.21-.18,.31-.27h.01c.22-.18,.45-.34,.67-.51,.11-.09,.22-.17,.33-.26V15.97c-1.2-1.01-1.21-1.96-.17-3.05Zm-20.13,17.23c.15,.06,.3,.1,.44,.15,.02,.01,.05,.01,.06,.02h.01c-.08,.15-.14,.3-.21,.46-.06,.15-.13,.3-.2,.45-.25,.35-.49,.71-.73,1.06-.56-.46-1.17-.88-1.61-1.44-.1-.12,.46-1.09,.71-1.08,.17,0,.34,.03,.51,.06,.26,.06,.51,.14,.76,.23,.09,.03,.17,.06,.26,.09Zm-3.96,29.93c.22-.12,.42-.23,.61-.32,.3-.14,.58-.22,.82-.28,1.74-.32,2,1.63,2.79,2.68-1-.48-1.98-.98-3.08-1.51-.18-.09-.37-.18-.56-.28-.19-.09-.38-.19-.58-.29Zm-8.61,14.42c-.55-1.05-1.09-2.1-1.62-3.12-.35-.69-.69-1.35-1.02-1.99-.05-.09-.09-.18-.14-.27-.13-.23-.24-.47-.36-.7,0-.01,0-.01,0-.02,0-.08,0-.15,0-.22,.07-1.4,.13-2.66,.2-3.94,.1,.41,.2,.81,.3,1.21,.46,1.75,1.05,3.4,2.61,4.77,.8,.71,.5,2.66,.71,4.05-.23,.08-.46,.16-.68,.23Zm4.09-10.83c-.59-1.35-1-2.28-1.41-3.21,.05-.02,.11-.04,.16-.07,.05-.01,.1-.04,.15-.06l.32-.13c1.42,.5,1.5,1.57,.78,3.47Zm3.29,20.15c-.64-1.25-1.19-2.31-1.81-3.51,2.07,.42,3,2.14,1.81,3.51Zm3.74-15.29c-.39-.14-.8-.28-1.22-.43-.21-.08-.42-.15-.65-.23-.21-.07-.43-.15-.66-.24,.13-.04,.26-.07,.39-.1,.65-.13,1.28-.15,1.85-.08,.03,0,.05,0,.08,0,.3,.04,.59,.1,.85,.19,1,.32,1.67,.96,1.7,1.72-.8-.28-1.56-.56-2.34-.84Zm1.79-10.48c-.36-.11-.65-.29-.88-.53-.16-.16-.28-.35-.38-.56h0c-.34-.77-.28-1.85,.25-3.16,.04,.21,.09,.38,.15,.57v.02c.1,.33,.22,.62,.37,.89,.55,.98,1.42,1.58,2.56,2,.69,.26,1.14,1.18,1.79,1.9-1.5-.43-2.7-.74-3.86-1.13Zm1.52,24.87c-.23-.04-.45-.09-.67-.14h-.01c.01-.36,.01-.73,.01-1.09,0-.21,0-.42,.02-.62,0-.12,0-.22,.01-.33,0-.14,.03-.28,.06-.42,0-.14,.05-.28,.08-.42,.05-.19,1.4,0,2.14,0,.05,.19,.09,.38,.14,.57-.6,.82-1.19,1.64-1.78,2.46Zm2.34-13.1c-.06-.13-.12-.26-.18-.4s-.12-.28-.17-.41c-.23-.55-.46-1.09-.67-1.65-.09-.27-.19-.56-.28-.84-.06-.21,.46-.76,.8-.9,.18-.08,.79,.39,.85,.68,.2,1.06,.24,2.16,.35,3.26-.24,.09-.46,.18-.7,.26Zm5.87-9.43h-.01c-.02-.06-.05-.13-.07-.2-.13-.3-.29-.59-.25-.86,.29-1.63-.46-2.33-1.99-2.48-1.33-.12-1.42-.82-.81-1.81,.58,.05,1.15,.09,1.81,.15,.2,.02,.43,.04,.67,.06,.06,.2,.12,.4,.18,.6l.18,.6c.35,1.21,.73,2.45,1.09,3.69-.27,.08-.54,.17-.8,.25Zm5.07-53.49c.03-.07,.07-.14,.13-.2,.03-.03,.06-.07,.1-.1,.07-.06,.15-.12,.22-.18,.12-.08,.24-.17,.34-.26h0c.3,.93,.58,1.85,.87,2.77-1.73-.11-2.06-.91-1.66-2.03Zm-6.37,3.14c.19-.93,.39-1.86,.59-2.78,.18-.07,.37-.14,.56-.21,.29,.99,.59,1.99,.95,3.2-1.01-.11-1.57-.16-2.1-.21Zm.42-5.39c-.14-.21-.24-.45-.31-.71-.11-.39-.13-.85-.07-1.36,.01-.18,.05-.37,.08-.56,.64,.19,1.09,.5,1.43,.88s.57,.84,.77,1.31c.23,.58,.4,1.21,.66,1.8-1.25-.23-2.1-.67-2.56-1.36Zm5.06,26.47c-.35,.12-.64,.79-.74,1.25-.02,.13-.04,.26-.05,.4-.02,.41,0,.83,.01,1.21,0,.08,0,.17,0,.25-.66-.03-1.51-.25-1.92-.14-.07,.03-.14,.06-.18,.11-.38,.5-.42,1.47-.26,2.15,.44,1.81,.97,3.62,1.46,5.43,.16,.58,.31,1.19,.45,1.78t-.01-.01c-.06-.14-.11-.28-.16-.4-.07-.17-.14-.32-.21-.49-.14-.29-.29-.58-.44-.86-.92-1.76-2.03-3.44-2.15-5.59-.06-.97-.88-1.9-1.35-2.86,2.79-1.86,2.82-3.6,1.35-7.19,.4,.41,.8,.81,1.43,1.46,1.76-2.01,.5-4.87,2.06-6.84,.48,1.7,.93,3.38,1.41,5.06,.24,.85,.7,1.68,.75,2.55,.05,1.1,0,2.28-1.46,2.73Zm4.14-15.93c-.46,1.37-.92,2.74-1.37,4.05-1.08-.17-2.38-.37-3.64-.57-.55-1-1.09-1.85-1.5-2.77-.05-.1-.09-.21-.13-.33,0-.03,0-.06-.01-.08-.03-.13-.05-.26-.05-.38,0-.18,.03-.33,.09-.46,.12-.26,.84-.54,1.05-.41,2.47,1.55,2.95-.41,3.65-2.01,.04-.1,.16-.16,.24-.24,.63,.26,1.16,.81,1.47,1.44,.06,.13,.12,.26,.16,.39,.16,.46,.18,.95,.04,1.37Zm-12.06,3.13c-.12-.01-.24-.02-.35-.03-.28,.67-.56,1.35-.9,2.18,.49,.42,.88,.77,1.45,1.25-.08-1.35-.14-2.37-.2-3.4Zm0,0c-.12-.01-.24-.02-.35-.03-.28,.67-.56,1.35-.9,2.18,.49,.42,.88,.77,1.45,1.25-.08-1.35-.14-2.37-.2-3.4Zm0,0c-.12-.01-.24-.02-.35-.03-.28,.67-.56,1.35-.9,2.18,.49,.42,.88,.77,1.45,1.25-.08-1.35-.14-2.37-.2-3.4Zm0,0c-.12-.01-.24-.02-.35-.03-.28,.67-.56,1.35-.9,2.18,.49,.42,.88,.77,1.45,1.25-.08-1.35-.14-2.37-.2-3.4Zm0,0c-.12-.01-.24-.02-.35-.03-.28,.67-.56,1.35-.9,2.18,.49,.42,.88,.77,1.45,1.25-.08-1.35-.14-2.37-.2-3.4Zm0,0c-.12-.01-.24-.02-.35-.03-.28,.67-.56,1.35-.9,2.18,.49,.42,.88,.77,1.45,1.25-.08-1.35-.14-2.37-.2-3.4Zm0,0c-.12-.01-.24-.02-.35-.03-.28,.67-.56,1.35-.9,2.18,.49,.42,.88,.77,1.45,1.25-.08-1.35-.14-2.37-.2-3.4Zm0,0c-.12-.01-.24-.02-.35-.03-.28,.67-.56,1.35-.9,2.18,.49,.42,.88,.77,1.45,1.25-.08-1.35-.14-2.37-.2-3.4Zm-15.45,5s-.01,.03-.01,.05c.01-.02,.01-.03,.02-.05h-.01Zm-14.3-9.76c-.1-.14-.21-.29-.3-.44-.3-.43-.58-.86-.77-1.33-.14-.35-.37-.72-.33-1.07,.32-3.21-.55-4.08-4.18-3.86,.55,1.8,.27,3.29-1.76,4-.31,.11-.37,.95-.42,1.08-1.32,.43-2.84,.46-3.45,1.23-1.03,1.25-.29,2.8,.51,4.43,.13-.19,.25-.36,.37-.53,.2-.28,.38-.55,.56-.81,.11-.14,.2-.28,.29-.41,.19-.26,.36-.51,.54-.75,.33-.47,.65-.92,.97-1.37,.68,.3,1.33,.59,2.04,.89-.02,.17-.04,.31-.06,.46-.03,.3-.07,.56-.13,.79-.02,.11-.05,.22-.08,.32-.04,.1-.06,.2-.11,.3-.02,.06-.06,.13-.09,.19-.06,.12-.13,.23-.23,.33-.03,.05-.09,.1-.14,.14-.52,.5-1.35,.71-2.76,.94-.56,.09-1.04,.98-1.43,1.59-.21,.34-.34,.72-.49,1.1-.04,.12-.08,.24-.13,.35-.04,.11-.08,.22-.14,.32h0c-.04,.06-.45-.06-.74-.14-.03-.01-.06-.01-.1-.01-.16,.12-.33,.26-.52,.41-.3,.23-.62,.49-.94,.74-.32-.61-.79-1.19-.94-1.84-.09-.37-.13-.76-.18-1.15-.02-.24-.03-.5-.06-.75v-.06c-.02-.27-.05-.53-.08-.79,0-.06,0-.12,0-.17,0-.06-.01-.12-.02-.17-.02-.11-.04-.22-.05-.34s-.03-.24-.04-.37c-.07-.74-.15-1.53-.51-1.73-.05-.02-.1-.05-.16-.06-.07-.02-.14-.03-.21-.04-.06-.01-.13-.01-.2-.01-.23,0-.48,.04-.75,.1-.09,.02-.18,.04-.27,.06-.38,.09-.76,.2-1.12,.25-.59-.54-1.31-1.19-2.24-2.04-.14,.57-.23,1-.35,1.51-.05,.2-.1,.41-.16,.65-.03,.12-.05,.25-.09,.38-.22-.99-.39-1.47-.44-1.96-.13-1.27-.54-2.12-2.06-2.19-.61-.03-1.26-.64-1.74-1.13-1.33-1.33-2.48-1.42-4.03-.25-.33,.26-.83,.34-1.26,.43-.56,.12-1.14,.18-1.81,.28-1.2-1.59-2.67-.88-4.78,2.61-.06-.03-.14-.04-.21-.05-.07-.02-.14-.04-.21-.05-.07-.01-.14-.03-.2-.07-.03,0-.05-.02-.08-.04,0,0-.03-.02-.03-.03s-.01-.02-.02-.03c-.07-.1-.14-.2-.22-.29s-.16-.17-.24-.26c-.08-.09-.17-.18-.25-.25-.19-.17-.41-.33-.62-.44-.08-.03-.15-.07-.21-.09-.38-.15-.76-.18-1.11,0-.04,0-.07,.02-.09,.05-.04,.01-.06,.02-.09,.05-.02,.02-.05,.04-.08,.06-.02,.26-.03,.51-.03,.77V29.47c.08-.18,.17-.35,.24-.35,.24,.04,.57,.15,.66,.34,.63,1.22,.77,2.46-.43,3.41-.17,.14-.33,.27-.47,.41v2.37c.1,.09,.21,.19,.34,.29,.13,.11,.24,.23,.35,.36,.32,.41,.57,.94,.92,1.45,1.08-1.28,1.22-3.42,3.08-3.15,.04,.01,.09,.02,.14,.04,.13,.05,.25,.14,.37,.27,.49,.49,.86,1.43,1.19,1.88-.5,.18-.93,.33-1.35,.47-.26,.1-.52,.18-.78,.28-.13,.04-.26,.09-.38,.13-.24,.09-.48,.17-.72,.25,.06,.12,.09,.26,.12,.4,.05,.14,.08,.28,.12,.41,.08,.27,.18,.5,.34,.58,.62,.28,1.39,.22,2.1,.31,1.78-2.68,1.56-4.09-.61-6.76-.17-.2-.21-.5-.21-.83s.03-.65,.06-.98c.01-.05,.01-.08,.01-.12,.01-.19,.01-.36,0-.52-.02-.3-.03-.6-.05-.9v-.03c0-.19-.02-.38-.04-.57-.03-.32-.07-.64-.15-.97-.07-.31-.17-.63-.31-.96-.23-.54-.58-1.09-1.09-1.66-.27,.89-.46,1.52-.65,2.15-.25-.09-.49-.17-.74-.25h0c.04-.37,.07-.73,.12-1.1,.03-.36,.07-.72,.1-1.08,.07-.73,.13-1.46,.17-2.18,.08-1.67,.99-2.67,2.77-3.39-.57,4.57,1.07,8.44,3.41,12.06,.25-.02,.48-.03,.72-.05,.14-.81,.62-1.75,.37-2.42-.47-1.25-.45-2.44-.26-3.61,.04-.24,.08-.47,.14-.7,.02-.12,.05-.24,.07-.35,.08-.36,.18-.7,.26-1.05,.13-.46,.25-.93,.34-1.4,.03-.13,.05-.25,.08-.38,.02-.11,.03-.21,.05-.32s.05-.23,.07-.34h0c.07-.37,.16-.71,.24-1.06,.1-.46,.19-.93,.22-1.41,.02-.36-.03-.7-.12-1.01-.05-.17-.12-.33-.21-.48-.04-.08-.09-.15-.14-.22-.05-.08-.1-.15-.16-.21-.06-.07-.12-.13-.18-.18-.62-.59-1.51-.88-2.46-.71-.17,.02-.34,.07-.53,.13-.04-.62-.03-1.06,.06-1.34,.03-.11,.08-.21,.14-.27,.06-.05,.11-.09,.18-.12,.14-.06,.33-.05,.56,.01,.13,.04,.28,.08,.44,.15,.11,.04,.23,.09,.35,.15,.27,.12,.56,.28,.83,.26,.51-.02,.91,.01,1.22,.12,.12,.04,.23,.09,.32,.16,.06,.03,.1,.06,.14,.11,.09,.07,.16,.16,.22,.26,.09,.16,.16,.34,.21,.56,.01,.07,.03,.15,.04,.22,.03,.16,.04,.33,.05,.52,0,.09,.01,.19,.01,.29,.01,.63,.04,1.25,.07,1.88,.05,.94,.12,1.87,.2,2.82,.05,.62,.11,1.25,.16,1.87,.03,.31,.07,.62,.09,.94,.13,1.41,.31,2.83,.62,4.21,.2,.89,.65,1.73,1.07,2.82-.44,.48-.66,.98-.74,1.5-.06,.42-.04,.86,.05,1.3,.03,.18,.08,.36,.12,.53h0c.07,.29,.15,.56,.23,.84,.06,.19,.11,.38,.17,.56,.1,.38,.2,.75,.25,1.13,.03,.19,.04,.39,.05,.58,.11-.16,.22-.32,.31-.48,.19-.32,.34-.65,.47-.98,.12-.34,.23-.68,.3-1.02,.08-.35,.14-.7,.2-1.05,.23-1.58,.22-3.23,.71-4.79,2.61,3.16,1.83,7.36,3.9,10.63-.25,.13-.5,.26-.75,.4h0c-.82-1.04-1.65-2.07-2.5-3.15-1.94,.34-2.58,1.73-1.62,3.56,.2,.4,.26,.98,.14,1.42-.18,.72-.43,1.49-.87,2.06-.53,.69-1.22,1.24-1.94,1.89-.09,.1-.19,.19-.3,.29h0c-.77-1.69-1.31-3.01-1.97-4.26-.86-1.66-2.66-1.91-4.21-.82-.16,.11-.34,.2-.52,.27-.54,.24-1.18,.35-1.75,.55,0,.02,.01,.04,.02,.05-.02-.01-.04-.01-.05-.01,.07,.44,.13,.88,.2,1.35-.19,0-.36,.01-.53,.01-.52,0-1.02,.01-1.67,.02,.02-.28,.04-.6,.06-.97,.03-.33,.06-.7,.08-1.11,.81,.3,1.34,.5,1.86,.7v-.03s.02-.01,.03-.01c-.09-.22-.16-.47-.24-.72-.07-.24-.14-.48-.22-.72-.04-.13-.09-.25-.14-.36-.07-.16-.14-.3-.23-.41-.03-.03-.06-.07-.09-.1-.07-.06-.14-.12-.21-.14-1.01-.4-2.18,.14-2.62,1.45-.01,.04-.04,.07-.08,.1v14.02s.03,0,.05-.02c.89-.41,1.64-.76,2.74-.52,.08,.01,.17,.03,.25,.06,.19,.05,.37,.09,.54,.12h.01c.32,.04,.6,.05,.86,.01,.11-.02,.22-.05,.32-.09,.85-.32,1.12-1.29,.76-2.63-.1-.41,.16-.91,.25-1.42,1.59,1.12,2.85,2.1,4.2,2.92,.33,.19,1.08,.13,1.37-.11l.06-.06s.07-.09,.09-.16c.05-.11,.09-.25,.11-.39,.03-.32-.02-.7-.13-.97-.07-.22-.78-.24-1.22-.29-.34-.04-.78,.14-1.04-.01-.29-.18-.44-.61-.65-.94,.28-.16,.56-.43,.86-.46,.34-.04,.68,.03,1.04,.08,.1,.02,.19,.04,.29,.05h0c.02-.17,.05-.32,.07-.47h0c-.19-.04-.38-.07-.57-.1-.57-.09-1.15-.19-1.75-.29-.67-.82,.91-3.04-1.7-2.79-.11-.93,.12-1.29,.51-1.42,.07-.03,.14-.05,.21-.06,.43-.07,.99,0,1.48-.11,.07-.02,.16-.04,.23-.07,.23-.09,.43-.24,.59-.5,.01,2.57,1.94,2.63,3.46,3.38,.2-.47,.4-.93,.67-1.55,.12,.21,.23,.41,.32,.58,.1,.17,.19,.33,.27,.48,.4-.3,.78-.77,1.16-.89,.03-.01,.06-.02,.09-.01,.02-.01,.03-.01,.04-.01h.08s.02,0,.04,.01c.02-.01,.05,0,.07,.01,.11,.03,.21,.1,.32,.18,.05,.05,.1,.09,.14,.14,.2,.2,.38,.45,.44,.66,.08,.27-.38,.98-.72,1.08-1.09,.3-1.19,.84-.91,1.45,.07,.14,.14,.28,.23,.42,.04,.04,.08,.09,.11,.14,.32,.44,.68,.85,1.08,1.28,.4,.43,.83,.88,1.29,1.39,.18-.8,.33-1.49,.47-2.14,.14-.68,.28-1.3,.41-1.91,.03,0,.06,.02,.09,.04,.07,.02,.14,.05,.21,.08,.1,.67,.2,1.34,.29,1.99v-5.01c-.16,.02-.33,.02-.5,0-.16-.01-.33-.02-.5-.04-.35-.03-.71-.08-1.07-.1,.31-.83,.42-1.81,.95-2.45,.62-.74,1.54-1.32,2.45-1.72,.36-.16,.62-.33,.84-.52,.12-.13,.23-.25,.31-.38,.03-.04,.05-.08,.08-.13,.04-.08,.09-.18,.12-.27,.03-.06,.04-.12,.05-.18,.02-.07,.04-.15,.05-.24,.05-.42,0-.87-.11-1.36-.02-.12-.06-.23-.08-.36-.05-.18-.09-.35-.12-.53-.29-1.25-.55-2.55-.89-4.15,.96,.33,1.64,.65,2.02,1.13,.07,.1,.13,.2,.17,.3,.04,.06,.06,.12,.07,.18,.04,.09,.06,.2,.07,.31,.03,.18,.04,.38,.01,.62-.01,.1-.02,.21-.05,.32-.02,.1-.03,.2-.04,.29h0c-.04,.43,.01,.88,.08,1.32,.03,.16,.05,.32,.08,.48,.04,.23,.09,.45,.11,.67,.04,.25,.06,.5,.06,.75,0,.55-.4,1.11-.7,1.63-.17,.28-.37,.56-.58,.83-.12,.16-.25,.33-.36,.5-.12,.16-.22,.33-.3,.5h3.02c.25-.03,.51-.06,.78-.12-.02,.04-.03,.08-.05,.12h6c1.09,0,1.98-.89,1.98-1.98v-8.38c0-.27,0-.53,.01-.79-.21,.07-.38,.13-.5,.15-.08,0-.14,0-.16-.02-.12-.17-.23-.35-.33-.53-.21-.33-.39-.67-.58-1.01-.28-.53-.55-1.07-.82-1.59,.12-.07,.23-.14,.35-.2,.35,.34,.69,.67,1.05,1.01l.07,.07c.16,.15,.32,.31,.48,.47,.16,.15,.31,.3,.47,.47,.2-4.68,1.13-8.58,2.78-11.7,.01-.15,.04-.31,.08-.47,.02-.08,.04-.14,.06-.21,.08-.33,.39-.59,.51-.92,.16-.44,.3-.79,.42-1.08h0c.25-.55,.46-.85,.83-1.02h.01c.23-.11,.51-.16,.89-.19,.76-.79,1.61-1.49,2.53-2.11-.1-.14-.2-.28-.3-.42Zm-25.24,14.71c-.35-.2-.61-.4-.8-.59-.63-.61-.49-1.17-.2-1.68,.08-.15,.17-.3,.27-.44,.05-.08,.15-.13,.29-.16,.17-.04,.39-.05,.58-.06,.05-.01,.1-.02,.14-.03-.08,.87-.16,1.74-.28,2.96ZM5.97,50.69c-.03,.59-.05,1.18-.07,1.82h-.01c-.71,.1-1.43,.21-2.44,.35-.04-.14-.08-.27-.12-.42-.07-.3-.15-.61-.24-.93-.04-.16-.08-.31-.13-.48,.08-.01,.17-.03,.24-.05,.17-.03,.33-.07,.51-.11,.17-.04,.35-.08,.54-.12,.29-.06,.61-.13,.97-.21-.27-.62-.63-1.18-.78-1.79-.13-.6-.14-1.26-.02-1.85,.03-.17,1.02-.36,1.05-.3,.26,.56,.52,1.16,.53,1.76,.02,.76,0,1.53-.03,2.33ZM28.83,26.9c.22,.07,.44,.14,.67,.22,.36,.12,.74,.24,1.18,.39,.12,.62,.34,1.62,.55,2.64-.16,.06-.32,.13-.47,.18-.94-1.23-1.88-2.46-2.86-3.74,.31,.11,.61,.21,.93,.31Zm.07,8.86c-.24-1.68-.46-3.19-.69-4.73,1.78,.83,2.23,3.58,.69,4.73Zm-4.1-10.06c-.59,.24-1.53,.41-1.67,.82-.23,.7-.15,1.65,.17,2.33,.32,.7,1.09,1.19,1.75,1.86-.72,.63-1.41,1.23-2.09,1.82-.47-.57-.86-1.23-1.42-1.71-1.14-1-1.52-2.32-.5-3.29,.05-.06,.12-.12,.19-.18,.15-.11,.28-.22,.4-.34,1.17-1.15,1.19-2.44,1-3.94-.05-.34,.08-.7,.14-1.05,.07-.09,.16-.18,.23-.26,.08-.08,.16-.17,.23-.25,.21,.19,.42,.38,.63,.57,.42,.36,.85,.73,1.25,1.13,.14,.15,.29,.3,.43,.44,.04,.06,.09,.1,.14,.17,.03,.03,.06,.06,.08,.1,.03,.04,.05,.08,.07,.12,.18,.37,.21,.87,.14,1.25-.03,.2-.77,.24-1.17,.41Zm10.03,.64l-.25-1.65c-.08-.55-.16-1.1-.24-1.65,.18-.03,.35-.06,.53-.09,.15,.7,.3,1.4,.45,2.11,.08,.39,.17,.77,.25,1.16-.17,.03-.34,.06-.51,.08-.08,.02-.15,.03-.23,.04Zm.1,43.58c.05-.22,.11-.45,.17-.68,.07-.25,.19-.47,.33-.69v-8.28c-.16,.03-.33,.09-.5,.18-.14,.07-.28,.16-.43,.27-.02,.02-.05,.04-.07,.05-1.42,1.08-3.27,2.34-2.57,5.09-1.32-1.41-2.29-2.45-3.27-3.5,1.44-1.21,1.46,.7,2.38,1.48,.24-.71,.42-1.25,.65-1.93,1.21-.09,1.72-.83,2.27-2.17,.04-.11,.08-.21,.12-.33,.04-.1,.08-.2,.1-.31,.05-.19,.1-.36,.14-.53,.01-.02,.01-.05,.02-.07,.03-.16,.05-.31,.06-.46-.26-.14-.56-.21-.88-.21h-7.11s.01,.07,.01,.1c.02,.13,.04,.26,.06,.4,.02,.17,.05,.33,.06,.5,.04,.27,.05,.55,.04,.82-.07,1.62-.35,3.09-.96,4.72-.86,2.26-.33,5.2,.17,7.74,.34,1.69,1.68,3.18,2.55,4.78,.48,.88,.94,1.78,1.4,2.66,.47,.89,.94,1.78,1.43,2.65,.05,.1,.11,.18,.17,.27,.09,.13,.21,.26,.32,.38,.55,.61,1.14,1.19,.7,2.17-.06,.13-.19,.28-.34,.42-.26,.26-.59,.46-.65,.42-1.04-.74-2.68-1.46-2.86-2.41-.34-1.96-1.59-3.15-2.84-4.27-.42-.38-.84-.75-1.23-1.13-2.23-2.21-3.16-6.02-1.79-8.88,.06-.09,.1-.19,.13-.3,.13-.29,.21-.61,.28-.93,.15-.73,.18-1.52,.11-2.23-.17-1.54,.55-2.57,1.18-3.8h0c.23-.45,.4-.94,.52-1.46h0c.06-.26,.1-.52,.13-.78,.03-.28,.05-.57,.05-.84,0-.13-.01-.26-.02-.39,0-.04-.01-.07-.01-.11-.01-.17-.03-.34-.05-.5h-2.44c-.54,0-.98-.44-.98-.98v-2.03c-.17,.13-.33,.25-.5,.38-.17,.13-.34,.25-.5,.38-.08,.06-.16,.12-.24,.18-.27,.2-.53,.4-.8,.6-.27,.21-.53,.41-.8,.61h0c-.28-.33-.55-.6-.8-.83-.13-.12-.26-.24-.38-.33-.12-.1-.24-.19-.36-.27-.73-.48-1.38-.59-1.98-.35-.07,.03-.13,.06-.2,.1-.19,.1-.39,.25-.57,.43-.57,.56-1.09,1.47-1.61,2.72h-.27c-.09-.01-.17-.01-.26-.01-.83-.03-1.65,.02-2.39-.06-.1-.01-.2-.03-.31-.05-.1-.01-.2-.03-.31-.06-.09-.02-.18-.04-.27-.08-.09-.02-.18-.06-.27-.09-2.85-1.21-3.84,.93-5.55,2.31-.3,.24-.68,.38-1.11,.46v5.4c.58-.12,1.02-.37,1.39-.69,.19-.18,.34-.37,.49-.57,.19-.28,.36-.58,.49-.91,.07-.16,.14-.32,.2-.5,.13-.35,.32-.66,.55-.9,.49-.53,1.19-.74,1.86-.54h0c.11,.02,.21,.06,.32,.13,.06,.03,.12,.06,.17,.09,.11,.06,.21,.15,.32,.23,.05,.06,.1,.1,.15,.15,.06,.05,.11,.11,.16,.16,.05,.04,.1,.09,.16,.15,.05,.06,.11,.11,.16,.17,.22,.22,.46,.48,.75,.78v.22c0,.08,0,.17,0,.27-.01,.11-.02,.22-.02,.35-.01,.26-.02,.56-.03,.92-.04-.03-.08-.05-.12-.08-.04-.02-.08-.05-.11-.07-.5-.34-.86-.58-1.28-.87-1.8,2.24-3.62,4.5-5.61,6.96v3.8c.29,.07,.6,.2,.8,.35,1.4,1.06,1.01,2.55,.55,3.86-.07,.19-.27,.33-.53,.44,.66,1.61,1.69,3.03,2.98,4.15,0-.01,0-.01,0-.02,0,.01,0,.03,.01,.04,1.93,1.67,4.43,2.67,7.18,2.67h1.28c1.14-3.47,1.28-7.23,2.16-10.88,1.91,1.89,2.3,3.59,1.99,5.74-.24,1.7-.39,3.42-.51,5.14h17.51v-6.79c-.16,.19-.32,.38-.5,.56-.15,.17-.32,.32-.5,.45-.06,.06-.12,.11-.18,.15,.06-.54,.13-1.09,.18-1.63,.01-.06,.01-.12,.02-.18,.1-.95,.53-2.01,.24-2.83-.11-.33-.2-.65-.26-.97-.26-1.21-.2-2.39,0-3.56,.12-.76,.3-1.52,.5-2.28Zm-23.98,10.59c-.05,.43-.1,.88-.16,1.34-.05,.46-.11,.94-.17,1.45,0,0,0-.01,0-.01-.08-.12-.15-.23-.22-.33-.1-.17-.2-.32-.29-.46-.08-.15-.17-.28-.26-.41-.22-.36-.42-.68-.65-1.04-.35,.37-.64,.67-.92,.96-.14-.06-.3-.12-.45-.18,.19-.6,.48-1.21,.66-1.81,.04-.12,.07-.25,.1-.37,.06-.24,.09-.47,.09-.71v-.14c-.01-.06-.01-.11-.02-.16-.01-.06-.03-.12-.04-.17-.05-.22-.14-.43-.26-.64-.27-.53-.66-1-.89-1.4,1.09,.29,1.91,.45,2.67,.75,.26,.11,.59,.31,.81,.52,.06,.05,.09,.08,.13,.12,.07,.09,.1,.18,.1,.25-.04,.79-.12,1.59-.22,2.44Zm.46-20.18c-.05,.73-.1,1.51-.17,2.52-.92-.73-1.4-1.11-1.99-1.57,.65-.64,1.23-1.21,1.81-1.79,.14,.05,.27,.09,.4,.13-.01,.24-.03,.47-.05,.71Zm5.11,11.66c-.21,.05-.42,.11-.62,.16h0c-.39-.86-.79-1.7-1.18-2.55-.38-.85-.75-1.71-1.11-2.58-.04-.1,1.12-.84,1.17-.79,.08,.08,.16,.17,.24,.26,.08,.09,.16,.18,.25,.27,.16,.18,.33,.36,.48,.55,.15,.18,.29,.38,.4,.58,.12,.19,.21,.4,.26,.62,.29,1.09,.1,2.32,.11,3.48ZM73.03,18.32c-.12-.01-.24-.02-.35-.03-.28,.67-.56,1.35-.9,2.18,.49,.42,.88,.77,1.45,1.25-.08-1.35-.14-2.37-.2-3.4Zm-15.45,5s-.01,.03-.01,.05c.01-.02,.01-.03,.02-.05h-.01Zm15.45-5c-.12-.01-.24-.02-.35-.03-.28,.67-.56,1.35-.9,2.18,.49,.42,.88,.77,1.45,1.25-.08-1.35-.14-2.37-.2-3.4Zm0,0c-.12-.01-.24-.02-.35-.03-.28,.67-.56,1.35-.9,2.18,.49,.42,.88,.77,1.45,1.25-.08-1.35-.14-2.37-.2-3.4Zm0,0c-.12-.01-.24-.02-.35-.03-.28,.67-.56,1.35-.9,2.18,.49,.42,.88,.77,1.45,1.25-.08-1.35-.14-2.37-.2-3.4Zm0,0c-.12-.01-.24-.02-.35-.03-.28,.67-.56,1.35-.9,2.18,.49,.42,.88,.77,1.45,1.25-.08-1.35-.14-2.37-.2-3.4Zm0,0c-.12-.01-.24-.02-.35-.03-.28,.67-.56,1.35-.9,2.18,.49,.42,.88,.77,1.45,1.25-.08-1.35-.14-2.37-.2-3.4Zm0,0c-.12-.01-.24-.02-.35-.03-.28,.67-.56,1.35-.9,2.18,.49,.42,.88,.77,1.45,1.25-.08-1.35-.14-2.37-.2-3.4Zm0,0c-.12-.01-.24-.02-.35-.03-.28,.67-.56,1.35-.9,2.18,.49,.42,.88,.77,1.45,1.25-.08-1.35-.14-2.37-.2-3.4Zm0,0c-.12-.01-.24-.02-.35-.03-.28,.67-.56,1.35-.9,2.18,.49,.42,.88,.77,1.45,1.25-.08-1.35-.14-2.37-.2-3.4Zm0,0c-.12-.01-.24-.02-.35-.03-.28,.67-.56,1.35-.9,2.18,.49,.42,.88,.77,1.45,1.25-.08-1.35-.14-2.37-.2-3.4Zm0,0c-.12-.01-.24-.02-.35-.03-.28,.67-.56,1.35-.9,2.18,.49,.42,.88,.77,1.45,1.25-.08-1.35-.14-2.37-.2-3.4Zm0,0c-.12-.01-.24-.02-.35-.03-.28,.67-.56,1.35-.9,2.18,.49,.42,.88,.77,1.45,1.25-.08-1.35-.14-2.37-.2-3.4Zm0,0c-.12-.01-.24-.02-.35-.03-.28,.67-.56,1.35-.9,2.18,.49,.42,.88,.77,1.45,1.25-.08-1.35-.14-2.37-.2-3.4Zm0,0c-.12-.01-.24-.02-.35-.03-.28,.67-.56,1.35-.9,2.18,.49,.42,.88,.77,1.45,1.25-.08-1.35-.14-2.37-.2-3.4Zm0,0c-.12-.01-.24-.02-.35-.03-.28,.67-.56,1.35-.9,2.18,.49,.42,.88,.77,1.45,1.25-.08-1.35-.14-2.37-.2-3.4Zm0,0c-.12-.01-.24-.02-.35-.03-.28,.67-.56,1.35-.9,2.18,.49,.42,.88,.77,1.45,1.25-.08-1.35-.14-2.37-.2-3.4Zm0,0c-.12-.01-.24-.02-.35-.03-.28,.67-.56,1.35-.9,2.18,.49,.42,.88,.77,1.45,1.25-.08-1.35-.14-2.37-.2-3.4Zm0,0c-.12-.01-.24-.02-.35-.03-.28,.67-.56,1.35-.9,2.18,.49,.42,.88,.77,1.45,1.25-.08-1.35-.14-2.37-.2-3.4Zm0,0c-.12-.01-.24-.02-.35-.03-.28,.67-.56,1.35-.9,2.18,.49,.42,.88,.77,1.45,1.25-.08-1.35-.14-2.37-.2-3.4Zm0,0c-.12-.01-.24-.02-.35-.03-.28,.67-.56,1.35-.9,2.18,.49,.42,.88,.77,1.45,1.25-.08-1.35-.14-2.37-.2-3.4Zm0,0c-.12-.01-.24-.02-.35-.03-.28,.67-.56,1.35-.9,2.18,.49,.42,.88,.77,1.45,1.25-.08-1.35-.14-2.37-.2-3.4Zm0,0c-.12-.01-.24-.02-.35-.03-.28,.67-.56,1.35-.9,2.18,.49,.42,.88,.77,1.45,1.25-.08-1.35-.14-2.37-.2-3.4Zm0,0c-.12-.01-.24-.02-.35-.03-.28,.67-.56,1.35-.9,2.18,.49,.42,.88,.77,1.45,1.25-.08-1.35-.14-2.37-.2-3.4Zm0,0c-.12-.01-.24-.02-.35-.03-.28,.67-.56,1.35-.9,2.18,.49,.42,.88,.77,1.45,1.25-.08-1.35-.14-2.37-.2-3.4Zm0,0c-.12-.01-.24-.02-.35-.03-.28,.67-.56,1.35-.9,2.18,.49,.42,.88,.77,1.45,1.25-.08-1.35-.14-2.37-.2-3.4Zm0,0c-.12-.01-.24-.02-.35-.03-.28,.67-.56,1.35-.9,2.18,.49,.42,.88,.77,1.45,1.25-.08-1.35-.14-2.37-.2-3.4Zm0,0c-.12-.01-.24-.02-.35-.03-.28,.67-.56,1.35-.9,2.18,.49,.42,.88,.77,1.45,1.25-.08-1.35-.14-2.37-.2-3.4Zm0,0c-.12-.01-.24-.02-.35-.03-.28,.67-.56,1.35-.9,2.18,.49,.42,.88,.77,1.45,1.25-.08-1.35-.14-2.37-.2-3.4Zm0,0c-.12-.01-.24-.02-.35-.03-.28,.67-.56,1.35-.9,2.18,.49,.42,.88,.77,1.45,1.25-.08-1.35-.14-2.37-.2-3.4Zm0,0c-.12-.01-.24-.02-.35-.03-.28,.67-.56,1.35-.9,2.18,.49,.42,.88,.77,1.45,1.25-.08-1.35-.14-2.37-.2-3.4Zm0,0c-.12-.01-.24-.02-.35-.03-.28,.67-.56,1.35-.9,2.18,.49,.42,.88,.77,1.45,1.25-.08-1.35-.14-2.37-.2-3.4Zm0,0c-.12-.01-.24-.02-.35-.03-.28,.67-.56,1.35-.9,2.18,.49,.42,.88,.77,1.45,1.25-.08-1.35-.14-2.37-.2-3.4Zm0,0c-.12-.01-.24-.02-.35-.03-.28,.67-.56,1.35-.9,2.18,.49,.42,.88,.77,1.45,1.25-.08-1.35-.14-2.37-.2-3.4Zm0,0c-.12-.01-.24-.02-.35-.03-.28,.67-.56,1.35-.9,2.18,.49,.42,.88,.77,1.45,1.25-.08-1.35-.14-2.37-.2-3.4Zm0,0c-.12-.01-.24-.02-.35-.03-.28,.67-.56,1.35-.9,2.18,.49,.42,.88,.77,1.45,1.25-.08-1.35-.14-2.37-.2-3.4Zm0,0c-.12-.01-.24-.02-.35-.03-.28,.67-.56,1.35-.9,2.18,.49,.42,.88,.77,1.45,1.25-.08-1.35-.14-2.37-.2-3.4Zm0,0c-.12-.01-.24-.02-.35-.03-.28,.67-.56,1.35-.9,2.18,.49,.42,.88,.77,1.45,1.25-.08-1.35-.14-2.37-.2-3.4Zm0,0c-.12-.01-.24-.02-.35-.03-.28,.67-.56,1.35-.9,2.18,.49,.42,.88,.77,1.45,1.25-.08-1.35-.14-2.37-.2-3.4Zm0,0c-.12-.01-.24-.02-.35-.03-.28,.67-.56,1.35-.9,2.18,.49,.42,.88,.77,1.45,1.25-.08-1.35-.14-2.37-.2-3.4Zm0,0c-.12-.01-.24-.02-.35-.03-.28,.67-.56,1.35-.9,2.18,.49,.42,.88,.77,1.45,1.25-.08-1.35-.14-2.37-.2-3.4Zm0,0c-.12-.01-.24-.02-.35-.03-.28,.67-.56,1.35-.9,2.18,.49,.42,.88,.77,1.45,1.25-.08-1.35-.14-2.37-.2-3.4Zm0,0c-.12-.01-.24-.02-.35-.03-.28,.67-.56,1.35-.9,2.18,.49,.42,.88,.77,1.45,1.25-.08-1.35-.14-2.37-.2-3.4Zm0,0c-.12-.01-.24-.02-.35-.03-.28,.67-.56,1.35-.9,2.18,.49,.42,.88,.77,1.45,1.25-.08-1.35-.14-2.37-.2-3.4Zm0,0c-.12-.01-.24-.02-.35-.03-.28,.67-.56,1.35-.9,2.18,.49,.42,.88,.77,1.45,1.25-.08-1.35-.14-2.37-.2-3.4Zm0,0c-.12-.01-.24-.02-.35-.03-.28,.67-.56,1.35-.9,2.18,.49,.42,.88,.77,1.45,1.25-.08-1.35-.14-2.37-.2-3.4Zm0,0c-.12-.01-.24-.02-.35-.03-.28,.67-.56,1.35-.9,2.18,.49,.42,.88,.77,1.45,1.25-.08-1.35-.14-2.37-.2-3.4Zm0,0c-.12-.01-.24-.02-.35-.03-.28,.67-.56,1.35-.9,2.18,.49,.42,.88,.77,1.45,1.25-.08-1.35-.14-2.37-.2-3.4Zm-43.47-3.89c-1.38,1.21-1.15,3.05,.31,4.39-.11-1.64-.21-3.02-.31-4.39Zm13.72-.87c-.1-.14-.21-.29-.3-.44-.3-.43-.58-.86-.77-1.33-.14-.35-.37-.72-.33-1.07,.32-3.21-.55-4.08-4.18-3.86,.55,1.8,.27,3.29-1.76,4-.31,.11-.37,.95-.42,1.08-1.32,.43-2.84,.46-3.45,1.23-1.03,1.25-.29,2.8,.51,4.43,.13-.19,.25-.36,.37-.53,.2-.28,.38-.55,.56-.81,.11-.14,.2-.28,.29-.41,.19-.26,.36-.51,.54-.75,.33-.47,.65-.92,.97-1.37,.68,.3,1.33,.59,2.04,.89-.02,.17-.04,.31-.06,.46-.03,.3-.07,.56-.13,.79-.02,.11-.05,.22-.08,.32-.04,.1-.06,.2-.11,.3-.02,.06-.06,.13-.09,.19-.06,.12-.13,.23-.23,.33-.03,.05-.09,.1-.14,.14-.52,.5-1.35,.71-2.76,.94-.56,.09-1.04,.98-1.43,1.59-.21,.34-.34,.72-.49,1.1-.04,.12-.08,.24-.13,.35-.04,.11-.08,.22-.14,.32h0c-.04,.06-.45-.06-.74-.14-.03-.01-.06-.01-.1-.01-.16,.12-.33,.26-.52,.41-.3,.23-.62,.49-.94,.74-.32-.61-.79-1.19-.94-1.84-.09-.37-.13-.76-.18-1.15-.02-.24-.03-.5-.06-.75v-.06c-.02-.27-.05-.53-.08-.79,0-.06,0-.12,0-.17,0-.06-.01-.12-.02-.17-.02-.11-.04-.22-.05-.34s-.03-.24-.04-.37c-.07-.74-.15-1.53-.51-1.73-.05-.02-.1-.05-.16-.06-.07-.02-.14-.03-.21-.04-.06-.01-.13-.01-.2-.01-.23,0-.48,.04-.75,.1-.09,.02-.18,.04-.27,.06-.38,.09-.76,.2-1.12,.25-.59-.54-1.31-1.19-2.24-2.04-.14,.57-.23,1-.35,1.51-.05,.2-.1,.41-.16,.65-.03,.12-.05,.25-.09,.38-.22-.99-.39-1.47-.44-1.96-.13-1.27-.54-2.12-2.06-2.19-.61-.03-1.26-.64-1.74-1.13-1.33-1.33-2.48-1.42-4.03-.25-.33,.26-.83,.34-1.26,.43-.56,.12-1.14,.18-1.81,.28-1.2-1.59-2.67-.88-4.78,2.61-.06-.03-.14-.04-.21-.05-.07-.02-.14-.04-.21-.05-.07-.01-.14-.03-.2-.07-.03,0-.05-.02-.08-.04,0,0-.03-.02-.03-.03s-.01-.02-.02-.03c-.07-.1-.14-.2-.22-.29s-.16-.17-.24-.26c-.08-.09-.17-.18-.25-.25-.19-.17-.41-.33-.62-.44-.08-.03-.15-.07-.21-.09-.38-.15-.76-.18-1.11,0-.04,0-.07,.02-.09,.05-.04,.01-.06,.02-.09,.05-.02,.02-.05,.04-.08,.06-.02,.26-.03,.51-.03,.77V29.47c.08-.18,.17-.35,.24-.35,.24,.04,.57,.15,.66,.34,.63,1.22,.77,2.46-.43,3.41-.17,.14-.33,.27-.47,.41v2.37c.1,.09,.21,.19,.34,.29,.13,.11,.24,.23,.35,.36,.32,.41,.57,.94,.92,1.45,1.08-1.28,1.22-3.42,3.08-3.15,.04,.01,.09,.02,.14,.04,.13,.05,.25,.14,.37,.27,.49,.49,.86,1.43,1.19,1.88-.5,.18-.93,.33-1.35,.47-.26,.1-.52,.18-.78,.28-.13,.04-.26,.09-.38,.13-.24,.09-.48,.17-.72,.25,.06,.12,.09,.26,.12,.4,.05,.14,.08,.28,.12,.41,.08,.27,.18,.5,.34,.58,.62,.28,1.39,.22,2.1,.31,1.78-2.68,1.56-4.09-.61-6.76-.17-.2-.21-.5-.21-.83s.03-.65,.06-.98c.01-.05,.01-.08,.01-.12,.01-.19,.01-.36,0-.52-.02-.3-.03-.6-.05-.9v-.03c0-.19-.02-.38-.04-.57-.03-.32-.07-.64-.15-.97-.07-.31-.17-.63-.31-.96-.23-.54-.58-1.09-1.09-1.66-.27,.89-.46,1.52-.65,2.15-.25-.09-.49-.17-.74-.25h0c.04-.37,.07-.73,.12-1.1,.03-.36,.07-.72,.1-1.08,.07-.73,.13-1.46,.17-2.18,.08-1.67,.99-2.67,2.77-3.39-.57,4.57,1.07,8.44,3.41,12.06,.25-.02,.48-.03,.72-.05,.14-.81,.62-1.75,.37-2.42-.47-1.25-.45-2.44-.26-3.61,.04-.24,.08-.47,.14-.7,.02-.12,.05-.24,.07-.35,.08-.36,.18-.7,.26-1.05,.13-.46,.25-.93,.34-1.4,.03-.13,.05-.25,.08-.38,.02-.11,.03-.21,.05-.32s.05-.23,.07-.34h0c.07-.37,.16-.71,.24-1.06,.1-.46,.19-.93,.22-1.41,.02-.36-.03-.7-.12-1.01-.05-.17-.12-.33-.21-.48-.04-.08-.09-.15-.14-.22-.05-.08-.1-.15-.16-.21-.06-.07-.12-.13-.18-.18-.62-.59-1.51-.88-2.46-.71-.17,.02-.34,.07-.53,.13-.04-.62-.03-1.06,.06-1.34,.03-.11,.08-.21,.14-.27,.06-.05,.11-.09,.18-.12,.14-.06,.33-.05,.56,.01,.13,.04,.28,.08,.44,.15,.11,.04,.23,.09,.35,.15,.27,.12,.56,.28,.83,.26,.51-.02,.91,.01,1.22,.12,.12,.04,.23,.09,.32,.16,.06,.03,.1,.06,.14,.11,.09,.07,.16,.16,.22,.26,.09,.16,.16,.34,.21,.56,.01,.07,.03,.15,.04,.22,.03,.16,.04,.33,.05,.52,0,.09,.01,.19,.01,.29,.01,.63,.04,1.25,.07,1.88,.05,.94,.12,1.87,.2,2.82,.05,.62,.11,1.25,.16,1.87,.03,.31,.07,.62,.09,.94,.13,1.41,.31,2.83,.62,4.21,.2,.89,.65,1.73,1.07,2.82-.44,.48-.66,.98-.74,1.5-.06,.42-.04,.86,.05,1.3,.03,.18,.08,.36,.12,.53h0c.07,.29,.15,.56,.23,.84,.06,.19,.11,.38,.17,.56,.1,.38,.2,.75,.25,1.13,.03,.19,.04,.39,.05,.58,.11-.16,.22-.32,.31-.48,.19-.32,.34-.65,.47-.98,.12-.34,.23-.68,.3-1.02,.08-.35,.14-.7,.2-1.05,.23-1.58,.22-3.23,.71-4.79,2.61,3.16,1.83,7.36,3.9,10.63-.25,.13-.5,.26-.75,.4h0c-.82-1.04-1.65-2.07-2.5-3.15-1.94,.34-2.58,1.73-1.62,3.56,.2,.4,.26,.98,.14,1.42-.18,.72-.43,1.49-.87,2.06-.53,.69-1.22,1.24-1.94,1.89-.09,.1-.19,.19-.3,.29h0c-.77-1.69-1.31-3.01-1.97-4.26-.86-1.66-2.66-1.91-4.21-.82-.16,.11-.34,.2-.52,.27-.54,.24-1.18,.35-1.75,.55,0,.02,.01,.04,.02,.05-.02-.01-.04-.01-.05-.01,.07,.44,.13,.88,.2,1.35-.19,0-.36,.01-.53,.01-.52,0-1.02,.01-1.67,.02,.02-.28,.04-.6,.06-.97,.03-.33,.06-.7,.08-1.11,.81,.3,1.34,.5,1.86,.7v-.03s.02-.01,.03-.01c-.09-.22-.16-.47-.24-.72-.07-.24-.14-.48-.22-.72-.04-.13-.09-.25-.14-.36-.07-.16-.14-.3-.23-.41-.03-.03-.06-.07-.09-.1-.07-.06-.14-.12-.21-.14-1.01-.4-2.18,.14-2.62,1.45-.01,.04-.04,.07-.08,.1v14.02s.03,0,.05-.02c.89-.41,1.64-.76,2.74-.52,.08,.01,.17,.03,.25,.06,.19,.05,.37,.09,.54,.12h.01c.32,.04,.6,.05,.86,.01,.11-.02,.22-.05,.32-.09,.85-.32,1.12-1.29,.76-2.63-.1-.41,.16-.91,.25-1.42,1.59,1.12,2.85,2.1,4.2,2.92,.33,.19,1.08,.13,1.37-.11l.06-.06s.07-.09,.09-.16c.05-.11,.09-.25,.11-.39,.03-.32-.02-.7-.13-.97-.07-.22-.78-.24-1.22-.29-.34-.04-.78,.14-1.04-.01-.29-.18-.44-.61-.65-.94,.28-.16,.56-.43,.86-.46,.34-.04,.68,.03,1.04,.08,.1,.02,.19,.04,.29,.05h0c.02-.17,.05-.32,.07-.47h0c-.19-.04-.38-.07-.57-.1-.57-.09-1.15-.19-1.75-.29-.67-.82,.91-3.04-1.7-2.79-.11-.93,.12-1.29,.51-1.42,.07-.03,.14-.05,.21-.06,.43-.07,.99,0,1.48-.11,.07-.02,.16-.04,.23-.07,.23-.09,.43-.24,.59-.5,.01,2.57,1.94,2.63,3.46,3.38,.2-.47,.4-.93,.67-1.55,.12,.21,.23,.41,.32,.58,.1,.17,.19,.33,.27,.48,.4-.3,.78-.77,1.16-.89,.03-.01,.06-.02,.09-.01,.02-.01,.03-.01,.04-.01h.08s.02,0,.04,.01c.02-.01,.05,0,.07,.01,.11,.03,.21,.1,.32,.18,.05,.05,.1,.09,.14,.14,.2,.2,.38,.45,.44,.66,.08,.27-.38,.98-.72,1.08-1.09,.3-1.19,.84-.91,1.45,.07,.14,.14,.28,.23,.42,.04,.04,.08,.09,.11,.14,.32,.44,.68,.85,1.08,1.28,.4,.43,.83,.88,1.29,1.39,.18-.8,.33-1.49,.47-2.14,.14-.68,.28-1.3,.41-1.91,.03,0,.06,.02,.09,.04,.07,.02,.14,.05,.21,.08,.1,.67,.2,1.34,.29,1.99v-5.01c-.16,.02-.33,.02-.5,0-.16-.01-.33-.02-.5-.04-.35-.03-.71-.08-1.07-.1,.31-.83,.42-1.81,.95-2.45,.62-.74,1.54-1.32,2.45-1.72,.36-.16,.62-.33,.84-.52,.12-.13,.23-.25,.31-.38,.03-.04,.05-.08,.08-.13,.04-.08,.09-.18,.12-.27,.03-.06,.04-.12,.05-.18,.02-.07,.04-.15,.05-.24,.05-.42,0-.87-.11-1.36-.02-.12-.06-.23-.08-.36-.05-.18-.09-.35-.12-.53-.29-1.25-.55-2.55-.89-4.15,.96,.33,1.64,.65,2.02,1.13,.07,.1,.13,.2,.17,.3,.04,.06,.06,.12,.07,.18,.04,.09,.06,.2,.07,.31,.03,.18,.04,.38,.01,.62-.01,.1-.02,.21-.05,.32-.02,.1-.03,.2-.04,.29h0c-.04,.43,.01,.88,.08,1.32,.03,.16,.05,.32,.08,.48,.04,.23,.09,.45,.11,.67,.04,.25,.06,.5,.06,.75,0,.55-.4,1.11-.7,1.63-.17,.28-.37,.56-.58,.83-.12,.16-.25,.33-.36,.5-.12,.16-.22,.33-.3,.5h3.02c.25-.03,.51-.06,.78-.12-.02,.04-.03,.08-.05,.12h6c1.09,0,1.98-.89,1.98-1.98v-8.38c0-.27,0-.53,.01-.79-.21,.07-.38,.13-.5,.15-.08,0-.14,0-.16-.02-.12-.17-.23-.35-.33-.53-.21-.33-.39-.67-.58-1.01-.28-.53-.55-1.07-.82-1.59,.12-.07,.23-.14,.35-.2,.35,.34,.69,.67,1.05,1.01l.07,.07c.16,.15,.32,.31,.48,.47,.16,.15,.31,.3,.47,.47,.2-4.68,1.13-8.58,2.78-11.7,.01-.15,.04-.31,.08-.47,.02-.08,.04-.14,.06-.21,.08-.33,.39-.59,.51-.92,.16-.44,.3-.79,.42-1.08h0c.25-.55,.46-.85,.83-1.02h.01c.23-.11,.51-.16,.89-.19,.76-.79,1.61-1.49,2.53-2.11-.1-.14-.2-.28-.3-.42Zm-25.24,14.71c-.35-.2-.61-.4-.8-.59-.63-.61-.49-1.17-.2-1.68,.08-.15,.17-.3,.27-.44,.05-.08,.15-.13,.29-.16,.17-.04,.39-.05,.58-.06,.05-.01,.1-.02,.14-.03-.08,.87-.16,1.74-.28,2.96ZM5.97,50.69c-.03,.59-.05,1.18-.07,1.82h-.01c-.71,.1-1.43,.21-2.44,.35-.04-.14-.08-.27-.12-.42-.07-.3-.15-.61-.24-.93-.04-.16-.08-.31-.13-.48,.08-.01,.17-.03,.24-.05,.17-.03,.33-.07,.51-.11,.17-.04,.35-.08,.54-.12,.29-.06,.61-.13,.97-.21-.27-.62-.63-1.18-.78-1.79-.13-.6-.14-1.26-.02-1.85,.03-.17,1.02-.36,1.05-.3,.26,.56,.52,1.16,.53,1.76,.02,.76,0,1.53-.03,2.33ZM28.83,26.9c.22,.07,.44,.14,.67,.22,.36,.12,.74,.24,1.18,.39,.12,.62,.34,1.62,.55,2.64-.16,.06-.32,.13-.47,.18-.94-1.23-1.88-2.46-2.86-3.74,.31,.11,.61,.21,.93,.31Zm.07,8.86c-.24-1.68-.46-3.19-.69-4.73,1.78,.83,2.23,3.58,.69,4.73Zm-4.1-10.06c-.59,.24-1.53,.41-1.67,.82-.23,.7-.15,1.65,.17,2.33,.32,.7,1.09,1.19,1.75,1.86-.72,.63-1.41,1.23-2.09,1.82-.47-.57-.86-1.23-1.42-1.71-1.14-1-1.52-2.32-.5-3.29,.05-.06,.12-.12,.19-.18,.15-.11,.28-.22,.4-.34,1.17-1.15,1.19-2.44,1-3.94-.05-.34,.08-.7,.14-1.05,.07-.09,.16-.18,.23-.26,.08-.08,.16-.17,.23-.25,.21,.19,.42,.38,.63,.57,.42,.36,.85,.73,1.25,1.13,.14,.15,.29,.3,.43,.44,.04,.06,.09,.1,.14,.17,.03,.03,.06,.06,.08,.1,.03,.04,.05,.08,.07,.12,.18,.37,.21,.87,.14,1.25-.03,.2-.77,.24-1.17,.41Zm10.03,.64l-.25-1.65c-.08-.55-.16-1.1-.24-1.65,.18-.03,.35-.06,.53-.09,.15,.7,.3,1.4,.45,2.11,.08,.39,.17,.77,.25,1.16-.17,.03-.34,.06-.51,.08-.08,.02-.15,.03-.23,.04ZM42.85,2h.35v-.14c-.13,.05-.25,.09-.35,.14Zm31.3,66.19h0c.21-.2,.42-.41,.63-.62-.21,.2-.42,.41-.63,.62Zm8.46,10.28c-.08,.44-.2,.85-.36,1.24,.17-.39,.29-.8,.37-1.24,.03-.14,.06-.27,.09-.41-.03,.14-.07,.27-.1,.41Zm1.14-3.32c-.05,.14-.1,.3-.16,.45,.06-.15,.12-.31,.17-.45h-.01Zm1.92-18.61l-.05,.05s.05-.03,.06-.04c.11-.09,.21-.18,.31-.27-.1,.08-.21,.17-.32,.26Zm.29,12.67c-.67,1.59-1.25,2.97-1.83,4.36,2.12-1.82,2.72-3.37,1.83-4.36Zm1.04-.31c.06,.12,.12,.25,.19,.37h.01c-.07-.12-.13-.25-.2-.37ZM5.47,43.74h.53c-.19-.01-.36,0-.53,0Zm3.65-27.98h0c.19-.05,.36-.1,.53-.13-.17,.02-.34,.07-.53,.13Zm16.57,8.06h-.01s.06,.06,.08,.1c-.02-.04-.04-.07-.07-.1Zm5.07,6.51c.15-.06,.31-.12,.47-.17h0c-.16,.05-.32,.12-.47,.17Zm3.82-5.64c.08,.55,.16,1.1,.24,1.65h.01l-.25-1.65Zm22.98-1.31s-.02,.08-.03,.12c.01-.04,.03-.08,.04-.13h-.01Zm.02-.05s-.01,.03-.01,.05c.01-.02,.01-.03,.02-.05h-.01Zm1.35,3.28c.15-.05,.3-.1,.46-.15h0c-.15,.05-.31,.1-.46,.15Zm8.14,3.16c-.07-.14-.12-.28-.17-.42,.04,.14,.1,.28,.16,.42,.17,.39,.35,.79,.53,1.18-.18-.39-.35-.79-.52-1.18Zm1.57,6.46h.01s.07-.09,.1-.14c-.04,.05-.07,.1-.11,.14Zm1.75-3.12c-.07-.41-.19-.81-.33-1.19,.13,.38,.25,.78,.32,1.19,.12,.57,.23,1.14,.38,1.67-.14-.53-.25-1.1-.37-1.67Zm1.72-9.2c.04,.19,.09,.38,.14,.56h.01c-.05-.2-.1-.38-.15-.56Zm.89-7.46c-.06,.11-.14,.25-.21,.38,.08-.13,.16-.26,.22-.37h-.01Zm.03,1.87c-.12-.01-.24-.02-.35-.03-.28,.67-.56,1.35-.9,2.18,.49,.42,.88,.77,1.45,1.25-.08-1.35-.14-2.37-.2-3.4Zm2.43-8.28h.01c.19-.93,.39-1.86,.59-2.78-.2,.92-.4,1.85-.6,2.78Zm.67,45.21h-.01c.06,.2,.12,.4,.18,.6-.06-.2-.12-.4-.17-.6Zm-13.39,4.83s0,.01,0,.01c.2,.09,.39,.19,.59,.28-.19-.09-.38-.19-.58-.29Zm-.03,7.54h0s.01,.01,.01,.01c.13-.04,.26-.07,.39-.1-.13,.02-.27,.05-.4,.09Zm2.33-.16c.3,.04,.59,.1,.85,.19-.26-.1-.55-.16-.85-.19Zm5.68,1.96c.05,.14,.11,.27,.17,.4h.01c-.06-.13-.12-.26-.18-.4Zm-62.37,8.41c.12,.21,.2,.42,.26,.64-.05-.22-.14-.43-.26-.64Zm.3,.81s.01,.1,.01,.16c0,.05,.01,.09,.01,.14v-.14c-.01-.06-.01-.11-.02-.16Zm.35-12.95s.08,.06,.12,.09h0s-.08-.06-.12-.09Z"/>
  <path class="cls-1" d="M88.82,10.86c-1.02-6.15-6.39-10.86-12.82-10.86H13C6.42,0,.97,4.91,.12,11.26c-.06,.42-.1,.84-.11,1.27-.01,.16-.01,.31-.01,.47v63c0,.22,.01,.43,.02,.65,.19,3.86,2.07,7.28,4.91,9.54,.41,.32,.84,.63,1.29,.9,.8,.49,1.65,.89,2.54,1.2,.46,.16,.93,.29,1.41,.4,.91,.2,1.86,.31,2.83,.31h63c2.52,0,4.89-.73,6.88-1.99,.36-.21,.7-.45,1.03-.71,3.09-2.37,5.09-6.11,5.09-10.3V12.96c0-.71-.06-1.41-.18-2.1Zm-1.63,58.41c-.07-.12-.13-.25-.19-.37v7.1c0,.22-.01,.45-.02,.67-.35,5.76-5.14,10.33-10.98,10.33h-24.51v.19s-.02-.02-.03-.03c-.05-.05-.09-.1-.13-.16H13c-2.75,0-5.25-1-7.18-2.67t-.02-.02c-1.29-1.12-2.32-2.54-2.98-4.15-.53-1.28-.82-2.69-.82-4.16V13c0-.26,.01-.51,.03-.77C2.42,6.52,7.19,2,13,2h29.85c.1-.05,.22-.09,.35-.14v.14h32.8c5.98,0,10.86,4.8,11,10.75v56.15c.07,.12,.13,.25,.2,.37h-.01Z"/>
  <path class="cls-2" d="M29.87,18.82c-1.46-1.34-1.69-3.18-.31-4.39,.1,1.37,.2,2.75,.31,4.39Z"/>
  <path class="cls-2" d="M87,68.9c.06,.12,.12,.25,.19,.37h.01c-.07-.12-.13-.25-.2-.37ZM76,2H43.2v-.14c-.13,.05-.25,.09-.35,.14-.81,.36-1.02,.8-.93,1.86,.12,1.42-.02,2.81,.67,4.09,.1,.18,.22,.36,.35,.54,.07,.1,.15,.2,.22,.3,.45,.59,.92,1.18,1.35,1.78,.25,.36,.5,.72,.71,1.09,.03,.05,.06,.11,.09,.16-.83,.38-1.6,.81-2.33,1.3-.3-.43-.58-.86-.77-1.33-.14-.35-.37-.72-.33-1.07,.32-3.21-.55-4.08-4.18-3.86,.55,1.8,.27,3.29-1.76,4-.31,.11-.37,.95-.42,1.08-1.32,.43-2.84,.46-3.45,1.23-1.03,1.25-.29,2.8,.51,4.43,.13-.19,.25-.36,.37-.53,.2-.28,.38-.55,.56-.81,.11-.14,.2-.28,.29-.41,.19-.26,.36-.51,.54-.75,.33-.47,.65-.92,.97-1.37,.68,.3,1.33,.59,2.04,.89-.02,.17-.04,.31-.06,.46-.03,.3-.07,.56-.13,.79-.02,.11-.05,.22-.08,.32-.04,.1-.06,.2-.11,.3-.02,.06-.06,.13-.09,.19-.06,.12-.13,.23-.23,.33-.03,.05-.09,.1-.14,.14-.52,.5-1.35,.71-2.76,.94-.56,.09-1.04,.98-1.43,1.59-.21,.34-.34,.72-.49,1.1-.04,.12-.08,.24-.13,.35-.04,.11-.08,.22-.14,.32h0c-.04,.06-.45-.06-.74-.14-.03-.01-.06-.01-.1-.01-.16,.12-.33,.26-.52,.41-.3,.23-.62,.49-.94,.74-.32-.61-.79-1.19-.94-1.84-.09-.37-.13-.76-.18-1.15-.02-.24-.03-.5-.06-.75v-.06c-.02-.27-.05-.53-.08-.79,0-.06,0-.12,0-.17,0-.06-.01-.12-.02-.17-.02-.11-.04-.22-.05-.34s-.03-.24-.04-.37c-.07-.74-.15-1.53-.51-1.73-.05-.02-.1-.05-.16-.06-.07-.02-.14-.03-.21-.04-.06-.01-.13-.01-.2-.01-.23,0-.48,.04-.75,.1-.09,.02-.18,.04-.27,.06-.38,.09-.76,.2-1.12,.25-.59-.54-1.31-1.19-2.24-2.04-.14,.57-.23,1-.35,1.51-.05,.2-.1,.41-.16,.65-.03,.12-.05,.25-.09,.38-.22-.99-.39-1.47-.44-1.96-.13-1.27-.54-2.12-2.06-2.19-.61-.03-1.26-.64-1.74-1.13-1.33-1.33-2.48-1.42-4.03-.25-.33,.26-.83,.34-1.26,.43-.56,.12-1.14,.18-1.81,.28-1.2-1.59-2.67-.88-4.78,2.61-.06-.03-.14-.04-.21-.05-.07-.02-.14-.04-.21-.05-.07-.01-.14-.03-.2-.07-.03,0-.05-.02-.08-.04,0,0-.03-.02-.03-.03s-.01-.02-.02-.03c-.07-.1-.14-.2-.22-.29s-.16-.17-.24-.26c-.08-.09-.17-.18-.25-.25-.19-.17-.41-.33-.62-.44-.08-.03-.15-.07-.21-.09-.38-.15-.76-.18-1.11,0-.04,0-.07,.02-.09,.05-.04,.01-.06,.02-.09,.05-.02,.02-.05,.04-.08,.06-.02,.26-.03,.51-.03,.77v22.65c.1,.09,.21,.19,.34,.29,.13,.11,.24,.23,.35,.36,.32,.41,.57,.94,.92,1.45,1.08-1.28,1.22-3.42,3.08-3.15,.04,.01,.09,.02,.14,.04,.13,.05,.25,.14,.37,.27,.49,.49,.86,1.43,1.19,1.88-.5,.18-.93,.33-1.35,.47-.26,.1-.52,.18-.78,.28-.13,.04-.26,.09-.38,.13-.24,.09-.48,.17-.72,.25,.06,.12,.09,.26,.12,.4,.05,.14,.08,.28,.12,.41,.08,.27,.18,.5,.34,.58,.62,.28,1.39,.22,2.1,.31,1.78-2.68,1.56-4.09-.61-6.76-.17-.2-.21-.5-.21-.83s.03-.65,.06-.98c.01-.05,.01-.08,.01-.12,.01-.19,.01-.36,0-.52-.02-.3-.03-.6-.05-.9v-.03c0-.19-.02-.38-.04-.57-.03-.32-.07-.64-.15-.97-.07-.31-.17-.63-.31-.96-.23-.54-.58-1.09-1.09-1.66-.27,.89-.46,1.52-.65,2.15-.25-.09-.49-.17-.74-.25h0c.04-.37,.07-.73,.12-1.1,.03-.36,.07-.72,.1-1.08,.07-.73,.13-1.46,.17-2.18,.08-1.67,.99-2.67,2.77-3.39-.57,4.57,1.07,8.44,3.41,12.06,.25-.02,.48-.03,.72-.05,.14-.81,.62-1.75,.37-2.42-.47-1.25-.45-2.44-.26-3.61,.04-.24,.08-.47,.14-.7,.02-.12,.05-.24,.07-.35,.08-.36,.18-.7,.26-1.05,.13-.46,.25-.93,.34-1.4,.03-.13,.05-.25,.08-.38,.02-.11,.03-.21,.05-.32s.05-.23,.07-.34h0c.07-.37,.16-.71,.24-1.06,.1-.46,.19-.93,.22-1.41,.02-.36-.03-.7-.12-1.01-.05-.17-.12-.33-.21-.48-.04-.08-.09-.15-.14-.22-.05-.08-.1-.15-.16-.21-.06-.07-.12-.13-.18-.18-.62-.59-1.51-.88-2.46-.71-.17,.02-.34,.07-.53,.13-.04-.62-.03-1.06,.06-1.34,.03-.11,.08-.21,.14-.27,.06-.05,.11-.09,.18-.12,.14-.06,.33-.05,.56,.01,.13,.04,.28,.08,.44,.15,.11,.04,.23,.09,.35,.15,.27,.12,.56,.28,.83,.26,.51-.02,.91,.01,1.22,.12,.12,.04,.23,.09,.32,.16,.06,.03,.1,.06,.14,.11,.09,.07,.16,.16,.22,.26,.09,.16,.16,.34,.21,.56,.01,.07,.03,.15,.04,.22,.03,.16,.04,.33,.05,.52,0,.09,.01,.19,.01,.29,.01,.63,.04,1.25,.07,1.88,.05,.94,.12,1.87,.2,2.82,.05,.62,.11,1.25,.16,1.87,.03,.31,.07,.62,.09,.94,.13,1.41,.31,2.83,.62,4.21,.2,.89,.65,1.73,1.07,2.82-.44,.48-.66,.98-.74,1.5-.06,.42-.04,.86,.05,1.3,.03,.18,.08,.36,.12,.53h0c.07,.29,.15,.56,.23,.84,.06,.19,.11,.38,.17,.56,.1,.38,.2,.75,.25,1.13,.03,.19,.04,.39,.05,.58,.11-.16,.22-.32,.31-.48,.19-.32,.34-.65,.47-.98,.12-.34,.23-.68,.3-1.02,.08-.35,.14-.7,.2-1.05,.23-1.58,.22-3.23,.71-4.79,2.61,3.16,1.83,7.36,3.9,10.63-.25,.13-.5,.26-.75,.4h0c-.82-1.04-1.65-2.07-2.5-3.15-1.94,.34-2.58,1.73-1.62,3.56,.2,.4,.26,.98,.14,1.42-.18,.72-.43,1.49-.87,2.06-.53,.69-1.22,1.24-1.94,1.89-.09,.1-.19,.19-.3,.29h0c-.77-1.69-1.31-3.01-1.97-4.26-.86-1.66-2.66-1.91-4.21-.82-.16,.11-.34,.2-.52,.27-.54,.24-1.18,.35-1.75,.55-.09-.22-.16-.47-.24-.72-.07-.24-.14-.48-.22-.72-.04-.13-.09-.25-.14-.36-.07-.16-.14-.3-.23-.41-.03-.03-.06-.07-.09-.1-.07-.06-.14-.12-.21-.14-1.01-.4-2.18,.14-2.62,1.45-.01,.04-.04,.07-.08,.1v34.56c0,1.47,.29,2.88,.82,4.16,.66,1.61,1.69,3.03,2.98,4.15t.02,.02c1.93,1.67,4.43,2.67,7.18,2.67h22.43v-27.19c0-.77-.45-1.45-1.1-1.77-.26-.14-.56-.21-.88-.21h-10.99c-.54,0-.98-.44-.98-.98v-11.86c0-.54,.44-.98,.98-.98h10.99c1.09,0,1.98-.89,1.98-1.98v-8.38c0-.27,0-.53,.01-.79,0-.4,.01-.79,.03-1.18,.2-4.68,1.13-8.58,2.78-11.7,.76-1.47,1.7-2.77,2.8-3.89,.76-.79,1.61-1.49,2.53-2.11,.68-.46,1.41-.87,2.19-1.23,1.52-.72,3.2-1.25,5.06-1.59,.86-.17,1.77-.29,2.71-.37,.93-.08,1.9-.12,2.91-.12,3.93,0,7.27,.17,10.2,.52,.49,.06,.86,.48,.86,.98v10.14c0,.54-.44,.98-.98,.98h-7.77c-.11,0-.22,0-.33,.01-.3,.01-.58,.03-.86,.07h-.01c-2.12,.3-3.81,1.41-5,3.24-.5,.76-.91,1.64-1.23,2.65-.55,1.71-.84,3.78-.84,6.16v6.61c0,1.09,.89,1.98,1.98,1.98h13.66c.29,0,.55,.12,.74,.34,.19,.22,.28,.51,.24,.79l-1.84,11.86c-.08,.48-.48,.83-.97,.83h-11.83c-.1,0-.19,.01-.28,.02-.96,.14-1.7,.97-1.7,1.96v27.19h.84c.04,.06,.08,.11,.13,.16,.01,.01,.02,.02,.03,.03v-.19h24.51c5.84,0,10.63-4.57,10.98-10.33,0-.22,.02-.45,.02-.67V12.75c-.14-5.95-5.02-10.75-11-10.75ZM21.54,30.82c-1.14-1-1.52-2.32-.5-3.29,.05-.06,.12-.12,.19-.18,.15-.11,.28-.22,.4-.34,1.17-1.15,1.19-2.44,1-3.94-.05-.34,.08-.7,.14-1.05,.07-.09,.16-.18,.23-.26,.08-.08,.16-.17,.23-.25,.21,.19,.42,.38,.63,.57,.42,.36,.85,.73,1.25,1.13,.14,.15,.29,.3,.43,.44,.04,.06,.09,.1,.14,.17,.03,.03,.06,.06,.08,.1,.03,.04,.05,.08,.07,.12,.18,.37,.21,.87,.14,1.25-.03,.2-.77,.24-1.17,.41-.59,.24-1.53,.41-1.67,.82-.23,.7-.15,1.65,.17,2.33,.32,.7,1.09,1.19,1.75,1.86-.72,.63-1.41,1.23-2.09,1.82-.47-.57-.86-1.23-1.42-1.71Zm36.04-7.5s-.01,.03-.01,.05c.01-.02,.01-.03,.02-.05h-.01Z"/>
  <g>
    <path class="cls-3" d="M57.58,23.32s-.01,.03-.01,.05c.01-.02,.01-.03,.02-.05h-.01Zm-5.83,6.28c.22-.74,.5-1.42,.84-2.05,1.01-1.93,2.58-3.28,4.84-3.65,.36-.06,.75-.1,1.15-.1,.06-.01,.12-.01,.18-.01h7.77c.82,0,1.48-.66,1.48-1.48V12.17c0-.75-.56-1.39-1.3-1.48-1.94-.23-5.15-.52-10.26-.52-1.08,0-2.13,.05-3.13,.14-.92,.08-1.81,.2-2.66,.36-1.85,.35-3.55,.88-5.1,1.61-.8,.37-1.57,.79-2.28,1.28-1.16,.76-2.2,1.67-3.12,2.72h-.01c-.29,.32-.56,.66-.83,1.01h0c-2.53,3.37-4.01,7.97-4.32,13.92-.04,.59-.06,1.19-.06,1.8-.01,.21-.01,.43-.01,.64v8.38c0,.82-.66,1.48-1.48,1.48h-10.99c-.82,0-1.48,.66-1.48,1.48v11.86c0,.82,.66,1.48,1.48,1.48h10.99c.3,0,.57,.09,.8,.24,.41,.26,.68,.72,.68,1.24v27.19h.5v-27.19c0-.77-.45-1.45-1.1-1.77-.26-.14-.56-.21-.88-.21h-10.99c-.54,0-.98-.44-.98-.98v-11.86c0-.54,.44-.98,.98-.98h10.99c1.09,0,1.98-.89,1.98-1.98v-8.38c0-.27,0-.53,.01-.79,0-.4,.01-.79,.03-1.18,.2-4.68,1.13-8.58,2.78-11.7,.76-1.47,1.7-2.77,2.8-3.89,.76-.79,1.61-1.49,2.53-2.11,.68-.46,1.41-.87,2.19-1.23,1.52-.72,3.2-1.25,5.06-1.59,.86-.17,1.77-.29,2.71-.37,.93-.08,1.9-.12,2.91-.12,3.93,0,7.27,.17,10.2,.52,.49,.06,.86,.48,.86,.98v10.14c0,.54-.44,.98-.98,.98h-7.77c-.11,0-.22,0-.33,.01-.3,.01-.58,.03-.86,.07h-.01c-2.12,.3-3.81,1.41-5,3.24-.5,.76-.91,1.64-1.23,2.65-.55,1.71-.84,3.78-.84,6.16v6.61c0,1.09,.89,1.98,1.98,1.98h13.66c.29,0,.55,.12,.74,.34,.19,.22,.28,.51,.24,.79l-1.84,11.86c-.08,.48-.48,.83-.97,.83h-11.83c-.1,0-.19,.01-.28,.02-.96,.14-1.7,.97-1.7,1.96v27.19h.5v-27.19c0-.67,.44-1.23,1.05-1.41,.14-.05,.28-.07,.43-.07h11.83c.73,0,1.35-.53,1.46-1.26l.02-.11h0s.4-2.57,.4-2.57v-.02l1.42-9.15c.13-.9-.56-1.71-1.47-1.71h-13.66c-.82,0-1.48-.66-1.48-1.48v-6.61c0-2.08,.23-4.09,.76-5.82Z"/>
    <path class="cls-1" d="M40.16,16.28h-.01c-.29,.32-.56,.66-.83,1.01h0c-.12,.3-.26,.65-.42,1.09-.12,.33-.43,.59-.51,.92-.02,.07-.04,.13-.06,.21-.04,.16-.07,.32-.08,.47,.76-1.47,1.7-2.77,2.8-3.89-.38,.03-.66,.08-.89,.19Zm-5.16,14.93c-.04,.59-.06,1.19-.06,1.8,.12-.02,.29-.08,.5-.15,0-.4,.01-.79,.03-1.18-.16-.17-.31-.32-.47-.47Zm-8.28,12.8h.73s.03-.08,.05-.12c-.27,.06-.53,.09-.78,.12Zm13.44-27.73h-.01c-.29,.32-.56,.66-.83,1.01h0c-.12,.3-.26,.65-.42,1.09-.12,.33-.43,.59-.51,.92-.02,.07-.04,.13-.06,.21-.04,.16-.07,.32-.08,.47,.76-1.47,1.7-2.77,2.8-3.89-.38,.03-.66,.08-.89,.19Zm-5.16,14.93c-.04,.59-.06,1.19-.06,1.8,.12-.02,.29-.08,.5-.15,0-.4,.01-.79,.03-1.18-.16-.17-.31-.32-.47-.47Zm-8.28,12.8h.73s.03-.08,.05-.12c-.27,.06-.53,.09-.78,.12Zm13.44-27.73h-.01c-.29,.32-.56,.66-.83,1.01h0c-.12,.3-.26,.65-.42,1.09-.12,.33-.43,.59-.51,.92-.02,.07-.04,.13-.06,.21-.04,.16-.07,.32-.08,.47,.76-1.47,1.7-2.77,2.8-3.89-.38,.03-.66,.08-.89,.19Zm-5.16,14.93c-.04,.59-.06,1.19-.06,1.8,.12-.02,.29-.08,.5-.15,0-.4,.01-.79,.03-1.18-.16-.17-.31-.32-.47-.47Zm-8.28,12.8h.73s.03-.08,.05-.12c-.27,.06-.53,.09-.78,.12Zm13.44-27.73h-.01c-.29,.32-.56,.66-.83,1.01h0c-.12,.3-.26,.65-.42,1.09-.12,.33-.43,.59-.51,.92-.02,.07-.04,.13-.06,.21-.04,.16-.07,.32-.08,.47,.76-1.47,1.7-2.77,2.8-3.89-.38,.03-.66,.08-.89,.19Zm-5.16,14.93c-.04,.59-.06,1.19-.06,1.8,.12-.02,.29-.08,.5-.15,0-.4,.01-.79,.03-1.18-.16-.17-.31-.32-.47-.47Zm-8.28,12.8h.73s.03-.08,.05-.12c-.27,.06-.53,.09-.78,.12Zm13.44-27.73h-.01c-.29,.32-.56,.66-.83,1.01h0c-.12,.3-.26,.65-.42,1.09-.12,.33-.43,.59-.51,.92-.02,.07-.04,.13-.06,.21-.04,.16-.07,.32-.08,.47,.76-1.47,1.7-2.77,2.8-3.89-.38,.03-.66,.08-.89,.19Zm-5.16,14.93c-.04,.59-.06,1.19-.06,1.8,.12-.02,.29-.08,.5-.15,0-.4,.01-.79,.03-1.18-.16-.17-.31-.32-.47-.47Zm-8.28,12.8h.73s.03-.08,.05-.12c-.27,.06-.53,.09-.78,.12Zm13.44-27.73h-.01c-.29,.32-.56,.66-.83,1.01h0c-.12,.3-.26,.65-.42,1.09-.12,.33-.43,.59-.51,.92-.02,.07-.04,.13-.06,.21-.04,.16-.07,.32-.08,.47,.76-1.47,1.7-2.77,2.8-3.89-.38,.03-.66,.08-.89,.19Zm-5.16,14.93c-.04,.59-.06,1.19-.06,1.8,.12-.02,.29-.08,.5-.15,0-.4,.01-.79,.03-1.18-.16-.17-.31-.32-.47-.47Zm-8.28,12.8h.73s.03-.08,.05-.12c-.27,.06-.53,.09-.78,.12Zm13.44-27.73h-.01c-.29,.32-.56,.66-.83,1.01h0c-.12,.3-.26,.65-.42,1.09-.12,.33-.43,.59-.51,.92-.02,.07-.04,.13-.06,.21-.04,.16-.07,.32-.08,.47,.76-1.47,1.7-2.77,2.8-3.89-.38,.03-.66,.08-.89,.19Zm-5.16,14.93c-.04,.59-.06,1.19-.06,1.8,.12-.02,.29-.08,.5-.15,0-.4,.01-.79,.03-1.18-.16-.17-.31-.32-.47-.47Zm-8.28,12.8h.73s.03-.08,.05-.12c-.27,.06-.53,.09-.78,.12Zm13.44-27.73h-.01c-.29,.32-.56,.66-.83,1.01h0c-.12,.3-.26,.65-.42,1.09-.12,.33-.43,.59-.51,.92-.02,.07-.04,.13-.06,.21-.04,.16-.07,.32-.08,.47,.76-1.47,1.7-2.77,2.8-3.89-.38,.03-.66,.08-.89,.19Zm-5.16,14.93c-.04,.59-.06,1.19-.06,1.8,.12-.02,.29-.08,.5-.15,0-.4,.01-.79,.03-1.18-.16-.17-.31-.32-.47-.47Zm-8.28,12.8h.73s.03-.08,.05-.12c-.27,.06-.53,.09-.78,.12Zm13.44-27.73h-.01c-.29,.32-.56,.66-.83,1.01h0c-.12,.3-.26,.65-.42,1.09-.12,.33-.43,.59-.51,.92-.02,.07-.04,.13-.06,.21-.04,.16-.07,.32-.08,.47,.76-1.47,1.7-2.77,2.8-3.89-.38,.03-.66,.08-.89,.19Zm-5.16,14.93c-.04,.59-.06,1.19-.06,1.8,.12-.02,.29-.08,.5-.15,0-.4,.01-.79,.03-1.18-.16-.17-.31-.32-.47-.47Zm-8.28,12.8h.73s.03-.08,.05-.12c-.27,.06-.53,.09-.78,.12Zm13.44-27.73h-.01c-.29,.32-.56,.66-.83,1.01h0c-.12,.3-.26,.65-.42,1.09-.12,.33-.43,.59-.51,.92-.02,.07-.04,.13-.06,.21-.04,.16-.07,.32-.08,.47,.76-1.47,1.7-2.77,2.8-3.89-.38,.03-.66,.08-.89,.19Zm-5.16,14.93c-.04,.59-.06,1.19-.06,1.8,.12-.02,.29-.08,.5-.15,0-.4,.01-.79,.03-1.18-.16-.17-.31-.32-.47-.47Zm-8.28,12.8h.73s.03-.08,.05-.12c-.27,.06-.53,.09-.78,.12Zm13.44-27.73h-.01c-.29,.32-.56,.66-.83,1.01h0c-.12,.3-.26,.65-.42,1.09-.12,.33-.43,.59-.51,.92-.02,.07-.04,.13-.06,.21-.04,.16-.07,.32-.08,.47,.76-1.47,1.7-2.77,2.8-3.89-.38,.03-.66,.08-.89,.19Zm-5.16,14.93c-.04,.59-.06,1.19-.06,1.8,.12-.02,.29-.08,.5-.15,0-.4,.01-.79,.03-1.18-.16-.17-.31-.32-.47-.47Zm-8.28,12.8h.73s.03-.08,.05-.12c-.27,.06-.53,.09-.78,.12Zm13.44-27.73h-.01c-.29,.32-.56,.66-.83,1.01h0c-.12,.3-.26,.65-.42,1.09-.12,.33-.43,.59-.51,.92-.02,.07-.04,.13-.06,.21-.04,.16-.07,.32-.08,.47,.76-1.47,1.7-2.77,2.8-3.89-.38,.03-.66,.08-.89,.19Zm-5.16,14.93c-.04,.59-.06,1.19-.06,1.8,.12-.02,.29-.08,.5-.15,0-.4,.01-.79,.03-1.18-.16-.17-.31-.32-.47-.47Zm-8.28,12.8h.73s.03-.08,.05-.12c-.27,.06-.53,.09-.78,.12Zm25.45-14.08c.1-.35,.21-.7,.35-1.03,.82-2.19,2.29-4.01,4.85-4.48,.42-.09,.88-.13,1.36-.13h7.8c1.09,0,1.98-.89,1.98-1.98V12.17c0-1.01-.75-1.86-1.74-1.98-2.97-.35-6.35-.52-10.32-.52-1.18,0-2.31,.05-3.39,.16-.89,.08-1.74,.2-2.56,.36-1.9,.36-3.63,.9-5.19,1.63-.83,.38-1.6,.81-2.33,1.3-3.86,2.56-6.42,6.55-7.66,11.94-.1,.41-.19,.82-.26,1.24-.27,1.39-.44,2.87-.54,4.44-.04,.56-.06,1.13-.07,1.72-.02,.39-.02,.79-.02,1.19v8.38c0,.54-.44,.98-.98,.98h-10.99c-1.09,0-1.98,.89-1.98,1.98v11.86c0,1.09,.89,1.98,1.98,1.98h10.99c.26,0,.49,.1,.66,.27,.2,.17,.32,.43,.32,.71v27.19h1v-27.19c0-.77-.45-1.45-1.1-1.77-.26-.14-.56-.21-.88-.21h-10.99c-.54,0-.98-.44-.98-.98v-11.86c0-.54,.44-.98,.98-.98h10.99c1.09,0,1.98-.89,1.98-1.98v-8.38c0-.27,0-.53,.01-.79,0-.4,.01-.79,.03-1.18,.2-4.68,1.13-8.58,2.78-11.7,.76-1.47,1.7-2.77,2.8-3.89,.76-.79,1.61-1.49,2.53-2.11,.68-.46,1.41-.87,2.19-1.23,1.52-.72,3.2-1.25,5.06-1.59,.86-.17,1.77-.29,2.71-.37,.93-.08,1.9-.12,2.91-.12,3.93,0,7.27,.17,10.2,.52,.49,.06,.86,.48,.86,.98v10.14c0,.54-.44,.98-.98,.98h-7.77c-.11,0-.22,0-.33,.01-.3,.01-.58,.03-.86,.07h-.01c-2.12,.3-3.81,1.41-5,3.24-.5,.76-.91,1.64-1.23,2.65-.55,1.71-.84,3.78-.84,6.16v6.61c0,1.09,.89,1.98,1.98,1.98h13.66c.29,0,.55,.12,.74,.34,.19,.22,.28,.51,.24,.79l-1.84,11.86c-.08,.48-.48,.83-.97,.83h-11.83c-.1,0-.19,.01-.28,.02-.96,.14-1.7,.97-1.7,1.96v27.19h.84c.04,.06,.08,.11,.13,.16l.03,.03v-27.38c0-.32,.15-.6,.39-.78,.16-.13,.37-.2,.59-.2h11.83c.86,0,1.59-.53,1.86-1.31,.05-.12,.08-.24,.1-.37l.29-1.87,1.55-9.99c.08-.58-.09-1.16-.47-1.6-.38-.43-.92-.68-1.5-.68h-13.66c-.54,0-.98-.44-.98-.98v-6.61c0-1.6,.14-3.62,.68-5.49Zm-25.45,14.08h.73s.03-.08,.05-.12c-.27,.06-.53,.09-.78,.12Zm8.28-12.8c-.04,.59-.06,1.19-.06,1.8,.12-.02,.29-.08,.5-.15,0-.4,.01-.79,.03-1.18-.16-.17-.31-.32-.47-.47Zm5.16-14.93h-.01c-.29,.32-.56,.66-.83,1.01h0c-.12,.3-.26,.65-.42,1.09-.12,.33-.43,.59-.51,.92-.02,.07-.04,.13-.06,.21-.04,.16-.07,.32-.08,.47,.76-1.47,1.7-2.77,2.8-3.89-.38,.03-.66,.08-.89,.19Zm-13.44,27.73h.73s.03-.08,.05-.12c-.27,.06-.53,.09-.78,.12Zm8.28-12.8c-.04,.59-.06,1.19-.06,1.8,.12-.02,.29-.08,.5-.15,0-.4,.01-.79,.03-1.18-.16-.17-.31-.32-.47-.47Zm5.16-14.93h-.01c-.29,.32-.56,.66-.83,1.01h0c-.12,.3-.26,.65-.42,1.09-.12,.33-.43,.59-.51,.92-.02,.07-.04,.13-.06,.21-.04,.16-.07,.32-.08,.47,.76-1.47,1.7-2.77,2.8-3.89-.38,.03-.66,.08-.89,.19Zm-13.44,27.73h.73s.03-.08,.05-.12c-.27,.06-.53,.09-.78,.12Zm8.28-12.8c-.04,.59-.06,1.19-.06,1.8,.12-.02,.29-.08,.5-.15,0-.4,.01-.79,.03-1.18-.16-.17-.31-.32-.47-.47Zm5.16-14.93h-.01c-.29,.32-.56,.66-.83,1.01h0c-.12,.3-.26,.65-.42,1.09-.12,.33-.43,.59-.51,.92-.02,.07-.04,.13-.06,.21-.04,.16-.07,.32-.08,.47,.76-1.47,1.7-2.77,2.8-3.89-.38,.03-.66,.08-.89,.19Zm-13.44,27.73h.73s.03-.08,.05-.12c-.27,.06-.53,.09-.78,.12Zm8.28-12.8c-.04,.59-.06,1.19-.06,1.8,.12-.02,.29-.08,.5-.15,0-.4,.01-.79,.03-1.18-.16-.17-.31-.32-.47-.47Zm5.16-14.93h-.01c-.29,.32-.56,.66-.83,1.01h0c-.12,.3-.26,.65-.42,1.09-.12,.33-.43,.59-.51,.92-.02,.07-.04,.13-.06,.21-.04,.16-.07,.32-.08,.47,.76-1.47,1.7-2.77,2.8-3.89-.38,.03-.66,.08-.89,.19Zm-13.44,27.73h.73s.03-.08,.05-.12c-.27,.06-.53,.09-.78,.12Zm8.28-12.8c-.04,.59-.06,1.19-.06,1.8,.12-.02,.29-.08,.5-.15,0-.4,.01-.79,.03-1.18-.16-.17-.31-.32-.47-.47Zm5.16-14.93h-.01c-.29,.32-.56,.66-.83,1.01h0c-.12,.3-.26,.65-.42,1.09-.12,.33-.43,.59-.51,.92-.02,.07-.04,.13-.06,.21-.04,.16-.07,.32-.08,.47,.76-1.47,1.7-2.77,2.8-3.89-.38,.03-.66,.08-.89,.19Zm-13.44,27.73h.73s.03-.08,.05-.12c-.27,.06-.53,.09-.78,.12Zm8.28-12.8c-.04,.59-.06,1.19-.06,1.8,.12-.02,.29-.08,.5-.15,0-.4,.01-.79,.03-1.18-.16-.17-.31-.32-.47-.47Zm5.16-14.93h-.01c-.29,.32-.56,.66-.83,1.01h0c-.12,.3-.26,.65-.42,1.09-.12,.33-.43,.59-.51,.92-.02,.07-.04,.13-.06,.21-.04,.16-.07,.32-.08,.47,.76-1.47,1.7-2.77,2.8-3.89-.38,.03-.66,.08-.89,.19Zm-13.44,27.73h.73s.03-.08,.05-.12c-.27,.06-.53,.09-.78,.12Zm8.28-12.8c-.04,.59-.06,1.19-.06,1.8,.12-.02,.29-.08,.5-.15,0-.4,.01-.79,.03-1.18-.16-.17-.31-.32-.47-.47Zm5.16-14.93h-.01c-.29,.32-.56,.66-.83,1.01h0c-.12,.3-.26,.65-.42,1.09-.12,.33-.43,.59-.51,.92-.02,.07-.04,.13-.06,.21-.04,.16-.07,.32-.08,.47,.76-1.47,1.7-2.77,2.8-3.89-.38,.03-.66,.08-.89,.19Zm-13.44,27.73h.73s.03-.08,.05-.12c-.27,.06-.53,.09-.78,.12Zm8.28-12.8c-.04,.59-.06,1.19-.06,1.8,.12-.02,.29-.08,.5-.15,0-.4,.01-.79,.03-1.18-.16-.17-.31-.32-.47-.47Zm5.16-14.93h-.01c-.29,.32-.56,.66-.83,1.01h0c-.12,.3-.26,.65-.42,1.09-.12,.33-.43,.59-.51,.92-.02,.07-.04,.13-.06,.21-.04,.16-.07,.32-.08,.47,.76-1.47,1.7-2.77,2.8-3.89-.38,.03-.66,.08-.89,.19Zm-13.44,27.73h.73s.03-.08,.05-.12c-.27,.06-.53,.09-.78,.12Zm8.28-12.8c-.04,.59-.06,1.19-.06,1.8,.12-.02,.29-.08,.5-.15,0-.4,.01-.79,.03-1.18-.16-.17-.31-.32-.47-.47Zm5.16-14.93h-.01c-.29,.32-.56,.66-.83,1.01h0c-.12,.3-.26,.65-.42,1.09-.12,.33-.43,.59-.51,.92-.02,.07-.04,.13-.06,.21-.04,.16-.07,.32-.08,.47,.76-1.47,1.7-2.77,2.8-3.89-.38,.03-.66,.08-.89,.19Zm-13.44,27.73h.73s.03-.08,.05-.12c-.27,.06-.53,.09-.78,.12Zm8.28-12.8c-.04,.59-.06,1.19-.06,1.8,.12-.02,.29-.08,.5-.15,0-.4,.01-.79,.03-1.18-.16-.17-.31-.32-.47-.47Zm5.16-14.93h-.01c-.29,.32-.56,.66-.83,1.01h0c-.12,.3-.26,.65-.42,1.09-.12,.33-.43,.59-.51,.92-.02,.07-.04,.13-.06,.21-.04,.16-.07,.32-.08,.47,.76-1.47,1.7-2.77,2.8-3.89-.38,.03-.66,.08-.89,.19Zm-13.44,27.73h.73s.03-.08,.05-.12c-.27,.06-.53,.09-.78,.12Zm8.28-12.8c-.04,.59-.06,1.19-.06,1.8,.12-.02,.29-.08,.5-.15,0-.4,.01-.79,.03-1.18-.16-.17-.31-.32-.47-.47Zm5.16-14.93h-.01c-.29,.32-.56,.66-.83,1.01h0c-.12,.3-.26,.65-.42,1.09-.12,.33-.43,.59-.51,.92-.02,.07-.04,.13-.06,.21-.04,.16-.07,.32-.08,.47,.76-1.47,1.7-2.77,2.8-3.89-.38,.03-.66,.08-.89,.19Zm-13.44,27.73h.73s.03-.08,.05-.12c-.27,.06-.53,.09-.78,.12Zm8.28-12.8c-.04,.59-.06,1.19-.06,1.8,.12-.02,.29-.08,.5-.15,0-.4,.01-.79,.03-1.18-.16-.17-.31-.32-.47-.47Zm5.16-14.93h-.01c-.29,.32-.56,.66-.83,1.01h0c-.12,.3-.26,.65-.42,1.09-.12,.33-.43,.59-.51,.92-.02,.07-.04,.13-.06,.21-.04,.16-.07,.32-.08,.47,.76-1.47,1.7-2.77,2.8-3.89-.38,.03-.66,.08-.89,.19Zm-13.44,27.73h.73s.03-.08,.05-.12c-.27,.06-.53,.09-.78,.12Zm8.28-12.8c-.04,.59-.06,1.19-.06,1.8,.12-.02,.29-.08,.5-.15,0-.4,.01-.79,.03-1.18-.16-.17-.31-.32-.47-.47Zm5.16-14.93h-.01c-.29,.32-.56,.66-.83,1.01h0c-.12,.3-.26,.65-.42,1.09-.12,.33-.43,.59-.51,.92-.02,.07-.04,.13-.06,.21-.04,.16-.07,.32-.08,.47,.76-1.47,1.7-2.77,2.8-3.89-.38,.03-.66,.08-.89,.19Z"/>
  </g>
</svg>