<?xml version="1.0" encoding="UTF-8"?>
<svg id="Calque_2" data-name="Calque 2" xmlns="http://www.w3.org/2000/svg" viewBox="0 0 111.07 104.14">
  <defs>
    <style>
      .cls-1 {
        fill: #2d0d0f;
      }

      .cls-2 {
        fill: #bd1622;
      }
    </style>
  </defs>
  <g id="Calque_2-2" data-name="Calque 2">
    <g>
      <path class="cls-2" d="M109.87,43.5l-24.45,23.3,5.76,32.83c.54,3.08-2.5,5.48-5.18,4.11l-30.46-15.66-30.48,15.66c-2.68,1.37-5.72-1.03-5.18-4.12l5.77-32.82L1.19,43.51c-2.28-2.18-1.1-6.17,1.96-6.6l34-4.83L52.32,2.04c.35-.75,.95-1.34,1.69-1.7,1.77-.84,3.9-.08,4.74,1.7l15.16,30.03,34,4.83c3.07,.43,4.25,4.42,1.96,6.6Z"/>
      <path class="cls-1" d="M107.91,36.9l-34-4.83L58.75,2.04c-.84-1.78-2.97-2.54-4.74-1.7-.74,.36-1.34,.95-1.69,1.7l-15.17,30.04L3.15,36.91c-3.06,.43-4.24,4.42-1.96,6.6l24.46,23.29-5.77,32.82c-.54,3.09,2.5,5.49,5.18,4.12l30.48-15.66,30.46,15.66c2.68,1.37,5.72-1.03,5.18-4.11l-5.76-32.83,24.45-23.3c2.29-2.18,1.11-6.17-1.96-6.6Zm-28.88,25.68c-.94,.91-1.37,2.23-1.13,3.51l4.81,27.47-25.58-13.14c-1.01-.52-2.2-.52-3.2,0l-25.58,13.14,4.81-27.47c.23-1.28-.19-2.59-1.13-3.5L11.86,43.36l28.13-4c1.18-.18,2.2-.92,2.73-2l12.8-25.39,12.82,25.39c.53,1.08,1.55,1.82,2.73,2l28.13,3.99-20.17,19.23Z"/>
    </g>
  </g>
</svg>